<svg width="1312" height="546" viewBox="0 0 1312 546" fill="none" xmlns="http://www.w3.org/2000/svg">
<g clip-path="url(#clip0_2063_28780)">
<g opacity="0.6">
<path d="M260.389 -28.4297C201.737 -53.2581 139.221 -69.6392 76.6311 -81.3099C26.9157 -90.5838 -16.1769 -76.4088 -39.1319 -30.5281C-58.4869 8.14762 -62.5272 54.4588 -67.1886 96.8813C-71.493 136.027 -76.1006 179.647 -58.1347 216.191C-38.1341 256.872 15.558 251.472 52.3848 243.67C98.9796 233.799 145.413 212.331 186.882 189.166C221.175 170.007 254.015 147.888 284.84 123.573C310.539 103.299 342.543 77.2671 351.495 44.1577C363.381 0.160135 287.418 -14.866 260.389 -28.4297C256.877 -30.1905 253.776 -24.9178 257.302 -23.1471C284.464 -9.51985 355.97 4.12693 344.749 45.6445C335.03 81.6203 291.855 111.144 263.822 132.035C194.82 183.468 108.728 233.022 22.2738 242.403C-5.16652 245.377 -34.0694 241.371 -50.4896 217.198C-63.6913 197.76 -64.6256 170.985 -64.6794 148.367C-64.7772 107.231 -58.5407 64.354 -50.2744 24.1766C-45.4662 0.810724 -38.0705 -22.1394 -25.4656 -42.5118C-3.94373 -77.2892 38.0337 -80.987 75.0121 -75.4207C105.094 -70.8864 133.943 -60.0472 163.883 -54.6374C196.205 -48.7923 227.201 -35.8988 257.312 -23.1471C260.892 -21.6308 264.013 -26.8938 260.389 -28.4297Z" fill="#70635E"/>
<path d="M194.077 7.55054C172.369 -1.57179 150.897 -9.33437 127.741 -13.7268C103.773 -18.2708 81.5815 -27.0312 56.8705 -26.904C22.8611 -26.7328 6.81265 0.189076 -1.65424 29.2436C-10.2043 58.5867 -13.4423 92.3564 -13.4815 122.849C-13.5157 151.126 -4.39338 176.962 25.7763 182.401C63.5472 189.205 105.549 167.086 138.365 151.18C163.457 139.015 186.999 122.56 208.961 105.514C226.472 91.9261 250.029 73.1727 252.861 49.4693C255.796 24.9393 210.468 15.5039 194.811 7.85386C191.279 6.13211 188.183 11.4049 191.725 13.1364C208.179 21.1729 251.834 30.2659 245.72 54.7959C239.972 77.8585 209.94 97.5658 192.179 110.572C150.178 141.333 99.2979 169.556 47.2982 176.468C-27.6858 186.426 -7.46513 87.2596 1.44687 42.5235C4.44036 27.5022 9.34148 12.9848 17.4073 -0.0848517C32.2916 -24.1991 63.2097 -22.4236 87.2995 -17.5665C123.212 -10.3322 158.674 -0.749964 192.453 13.4447C196.088 14.9708 197.653 9.05218 194.077 7.55054Z" fill="#70635E"/>
<path d="M347.095 34.9418C347.286 73.4904 349.678 112.029 350.573 150.568C351.331 183.384 357.411 237.531 324.722 255.081C259.335 290.186 187.359 317.768 117.179 341.56C83.5702 352.952 46.9195 360.788 11.6383 363.649C-15.2738 365.826 -39.975 359.844 -50.9609 333.078C-58.5718 314.54 -61.1251 293.649 -63.2578 273.913C-70.1888 209.733 -68.2371 141.441 -60.1126 77.3398C-59.6186 73.4366 -65.7376 73.4855 -66.2268 77.3398C-74.9822 146.454 -77.6334 221.502 -67.3665 290.421C-62.3479 324.127 -55.3289 359.692 -17.6755 368.384C18.7062 376.787 65.4918 363.116 100.607 353.196C176.378 331.792 252.39 298.271 322.693 263.01C352.99 247.812 355.587 221.942 356.805 189.733C358.522 144.571 354.902 99.0672 353.562 53.9251C353.376 47.6006 353.249 41.2761 353.214 34.9467C353.19 30.9994 347.076 30.9945 347.095 34.9418Z" fill="#70635E"/>
<path d="M174.471 0.501848C156.789 2.59534 133.917 5.79433 126.531 23.8287C122.696 33.1907 134.793 52.6386 137.654 60.7044C145.916 83.948 154.828 106.923 162.654 130.323C163.896 134.045 169.805 132.45 168.548 128.699C160.722 105.299 151.746 82.3387 143.548 59.0756C139.131 46.5391 123.665 21.652 147.094 13.058C155.424 10.0058 165.784 7.64319 174.471 6.61601C178.335 6.15623 178.384 0.037172 174.471 0.501848Z" fill="#70635E"/>
<path d="M193.224 8.86651C180.736 12.3883 152.049 23.6578 152.596 40.5867C153.041 54.1895 157.463 67.5673 162.037 80.3043C166.615 93.0609 170.738 107.603 177.943 119.132C180.032 122.468 185.319 119.401 183.226 116.045C174.152 101.533 168.518 81.806 163.558 65.4689C155.233 38.0579 169.76 21.8334 194.848 14.7605C198.633 13.6893 197.024 7.79041 193.224 8.86651Z" fill="#70635E"/>
<path d="M212.059 16.203C205.514 20.7813 196.284 22.459 190.708 28.4949C183.67 36.1058 180.163 43.7804 178.367 53.9886C175.144 72.3115 186.052 94.1561 195.678 109.045C197.81 112.342 203.103 109.28 200.96 105.959C192.264 92.5029 185.719 77.1 184.173 61.0809C182.995 48.8135 189.099 37.3775 198.637 30.0454C203.284 26.4698 210.205 24.9389 215.145 21.4856C218.349 19.2454 215.297 13.9383 212.059 16.203Z" fill="#70635E"/>
<path d="M226.124 23.8493C203.824 39.8831 198.317 71.9457 216.023 93.4627C218.532 96.5051 222.837 92.1568 220.352 89.134C205.272 70.816 210.305 42.7201 229.21 29.1271C232.38 26.8478 229.332 21.5406 226.124 23.8493Z" fill="#70635E"/>
<path d="M239.564 33.4951C228.299 42.2799 225.496 61.6789 233.89 73.2762C236.179 76.436 241.491 73.3887 239.172 70.1897C232.217 60.5783 234.599 45.063 243.892 37.8238C246.993 35.4026 242.631 31.1032 239.564 33.4951Z" fill="#70635E"/>
<path d="M7.53398 11.8363C22.1884 26.931 35.3852 36.4789 56.3249 41.2919C78.8202 46.467 106.662 36.2685 127.9 30.0418C131.676 28.9364 130.067 23.0326 126.276 24.1478C108.804 29.269 91.1023 33.9305 72.9555 35.8528C47.5059 38.543 28.327 24.4755 11.8579 7.50746C9.10411 4.68027 4.78506 9.00425 7.53398 11.8363Z" fill="#70635E"/>
<path d="M0.330028 30.7852C31.2334 73.5647 92.4631 77.8838 131.696 44.2462C134.695 41.6733 130.351 37.3689 127.373 39.9173C91.3186 70.8305 34.134 67.1767 5.61267 27.6988C3.32353 24.5341 -1.98357 27.5813 0.330028 30.7852Z" fill="#70635E"/>
<path d="M13.9762 66.8382C13.9077 69.4061 13.3745 71.9349 13.0566 74.4832C12.5723 78.3914 18.6914 78.3425 19.1707 74.4832C19.4838 71.9349 20.0218 69.4208 20.0903 66.8382C20.1881 62.8957 14.074 62.9055 13.9762 66.8382Z" fill="#70635E"/>
<path d="M48.5177 76.318C48.4884 78.886 48.2243 81.4149 47.9063 83.9633C47.4172 87.8714 53.5411 87.8225 54.0205 83.9633C54.3384 81.4198 54.6026 78.886 54.6319 76.318C54.6808 72.3707 48.5667 72.3756 48.5177 76.318Z" fill="#70635E"/>
<path d="M88.3688 74.9926C88.8285 76.4648 89.1318 77.8344 89.1758 79.3752C89.2883 83.3127 95.4025 83.3225 95.29 79.3752C95.2313 77.3061 94.884 75.3398 94.2628 73.3686C93.0889 69.617 87.19 71.2164 88.3688 74.9926Z" fill="#70635E"/>
<path d="M113.435 66.4324C114.017 68.8928 114.433 71.3776 115.269 73.7694C116.561 77.4673 122.464 75.8776 121.163 72.1455C120.332 69.7537 119.916 67.2689 119.329 64.8085C118.419 60.9688 112.525 62.5976 113.435 66.4324Z" fill="#70635E"/>
<path d="M-1.61668 153.049C-1.81233 144.787 9.37902 139.583 15.7867 144.817C23.9699 151.494 19.3378 164.984 12.4214 170.447C9.33009 172.893 13.6883 177.193 16.7454 174.776C26.6258 166.96 30.9302 147.15 18.5356 139.231C7.99476 132.505 -8.04388 140.062 -7.73084 153.044C-7.6379 156.986 -1.52374 156.996 -1.61668 153.049Z" fill="#70635E"/>
<path d="M24.6877 149.58C31.1149 146.068 39.117 148.348 44.2872 153.082C50.9296 159.153 46.6106 170.765 42.8198 177.192C40.8095 180.596 46.097 183.668 48.0976 180.278C53.7226 170.74 56.8432 157.661 48.6111 148.759C42.0274 141.647 29.9849 139.719 21.6012 144.303C18.143 146.186 21.2246 151.463 24.6877 149.58Z" fill="#70635E"/>
<path d="M53.2971 156.126C55.9678 150.961 62.6738 151.783 67.1347 154.003C71.3754 156.116 75.8021 165.219 73.0874 169.548C70.9841 172.899 76.2717 175.965 78.3652 172.634C82.8701 165.468 77.4701 153.597 71.1113 149.244C64.058 144.416 52.2552 144.852 48.0193 153.04C46.2095 156.532 51.4824 159.623 53.2971 156.126Z" fill="#70635E"/>
<path d="M67.9722 150.315C72.2619 142.366 80.4793 141.178 88.1783 144.954C95.9995 148.789 96.7136 156.541 98.768 163.952C99.8196 167.747 105.719 166.133 104.662 162.328C101.859 152.208 99.8148 142.841 88.8826 138.556C78.694 134.565 68.026 137.353 62.6944 147.228C60.8211 150.696 66.0989 153.788 67.9722 150.315Z" fill="#70635E"/>
<path d="M98.6748 147.878C106.75 138.863 119.492 142.169 121.693 154.168C122.403 158.042 128.297 156.398 127.587 152.544C124.574 136.094 105.342 131.291 94.3558 143.549C91.7291 146.479 96.0384 150.812 98.6748 147.878Z" fill="#70635E"/>
<path d="M114.134 139.191C118.375 123.172 137.818 129.159 142.171 141.945C143.438 145.658 149.342 144.063 148.065 140.321C141.795 121.915 114.095 115.429 108.24 137.567C107.228 141.383 113.126 142.997 114.134 139.191Z" fill="#70635E"/>
<path d="M137.982 127.174C135.952 118.628 147.256 109.237 155.317 112.284C159.015 113.678 160.595 107.77 156.941 106.39C144.302 101.611 129.06 116.051 132.088 128.797C132.998 132.632 138.897 131.003 137.982 127.174Z" fill="#70635E"/>
<path d="M119.639 125.525C112.742 114.064 132.146 100.036 139.121 112.103C141.092 115.512 146.379 112.436 144.403 109.017C133.427 90.0333 103.424 110.44 114.361 128.611C116.386 131.981 121.673 128.91 119.639 125.525Z" fill="#70635E"/>
<path d="M80.6224 139.597C80.2654 124.674 101.513 118.183 110.386 129.829C112.744 132.92 118.056 129.883 115.664 126.743C103.377 110.621 73.9898 118.036 74.5034 139.597C74.5963 143.535 80.7154 143.545 80.6224 139.597Z" fill="#70635E"/>
<path d="M40.2654 145.408C41.728 130.529 62.5552 129.154 70.5085 139.318C72.9395 142.419 77.2292 138.056 74.8325 134.99C63.1422 120.051 36.0834 125.808 34.1513 145.408C33.76 149.331 39.879 149.297 40.2654 145.408Z" fill="#70635E"/>
<path d="M-5.0882 131.547C0.125958 116.471 26.7006 128.323 21.4229 142.762C20.068 146.475 25.9766 148.06 27.3169 144.386C35.2408 122.703 -3.09736 107.119 -10.9822 129.923C-12.2735 133.66 -6.36973 135.249 -5.0882 131.547Z" fill="#70635E"/>
<path d="M21.2024 125.857C27.028 116.025 41.5651 118.784 44.045 129.711C44.9157 133.556 50.8096 131.927 49.939 128.087C46.2705 111.897 24.333 108.576 15.9199 122.77C13.9046 126.17 19.1921 129.242 21.2024 125.857Z" fill="#70635E"/>
<path d="M51.1584 128.798C53.0122 121.021 58.2362 114.647 66.5564 113.615C73.2526 112.788 80.6336 116.829 83.4803 122.801C85.1776 126.357 90.4456 123.256 88.7581 119.715C84.4978 110.783 73.9618 106.581 64.4775 107.76C54.4748 109.003 47.4704 117.92 45.2644 127.174C44.3497 131.004 50.2437 132.633 51.1584 128.798Z" fill="#70635E"/>
<path d="M89.1786 121.255C88.5721 108.983 107.526 98.8284 115.885 109.653C118.258 112.725 123.574 109.687 121.163 106.567C109.365 91.2958 82.1155 102.228 83.0596 121.255C83.2552 125.178 89.3694 125.198 89.1786 121.255Z" fill="#70635E"/>
<path d="M128.923 103.524C128.708 94.23 136.309 85.8561 145.74 85.7925C149.682 85.7631 149.687 79.649 145.74 79.6783C133.061 79.7664 122.521 90.9039 122.809 103.524C122.897 107.461 129.011 107.471 128.923 103.524Z" fill="#70635E"/>
<path d="M109.048 100.775C108.31 92.8315 119.932 85.3575 126.452 91.0168C129.411 93.5848 133.759 89.2805 130.776 86.6881C120.577 77.8348 101.658 87.0646 102.934 100.775C103.296 104.668 109.415 104.703 109.048 100.775Z" fill="#70635E"/>
<path d="M73.2858 110.557C74.1027 102.643 86.869 99.6937 91.4326 105.989C93.7217 109.149 99.0338 106.097 96.7104 102.902C88.4636 91.535 68.6243 96.4213 67.1667 110.557C66.7656 114.48 72.8798 114.441 73.2858 110.557Z" fill="#70635E"/>
<path d="M33.7306 116.994C37.0274 111.178 51.4666 102.051 53.8242 112.9C54.6606 116.754 60.5546 115.121 59.7182 111.276C56.0497 94.3619 34.3664 103.475 28.4528 113.908C26.5012 117.341 31.7888 120.423 33.7306 116.994Z" fill="#70635E"/>
<path d="M30.984 112.988C21.7247 97.1498 -2.58029 92.0286 -12.2015 110.234C-14.0407 113.717 -8.76295 116.808 -6.92381 113.321C0.545247 99.1846 18.7263 104.125 25.7063 116.074C27.6921 119.474 32.9748 116.397 30.984 112.988Z" fill="#70635E"/>
<path d="M53.4103 18.8445C57.3527 18.8445 57.3527 12.7303 53.4103 12.7303C49.4679 12.7303 49.4679 18.8445 53.4103 18.8445Z" fill="#70635E"/>
<path d="M83.9813 17.3136C87.9238 17.3136 87.9238 11.1995 83.9813 11.1995C80.0389 11.1995 80.0389 17.3136 83.9813 17.3136Z" fill="#70635E"/>
<path d="M119.429 14.4571C119.63 14.5598 119.835 14.6576 120.041 14.7652C123.558 16.5212 126.654 11.2484 123.127 9.4826C122.922 9.37988 122.717 9.28196 122.516 9.17435C118.999 7.41347 115.903 12.6864 119.429 14.4571Z" fill="#70635E"/>
<path d="M132.894 6.91958C136.837 6.91958 136.837 0.80542 132.894 0.80542C128.952 0.80542 128.952 6.91958 132.894 6.91958Z" fill="#70635E"/>
<path d="M-25.0553 216.743C-25.3537 211.231 -24.1063 208.262 -18.4617 210.678C-14.9449 212.185 -11.8144 214.655 -9.08017 217.281C-7.35842 218.935 -4.70729 218.108 -3.97359 215.931C-0.843144 206.706 10.4705 210.018 8.06881 219.199C7.07098 223.014 12.965 224.633 13.9629 220.823C18.3846 203.923 -4.25241 197.746 -9.86765 214.308C-8.16547 213.858 -6.46333 213.408 -4.76115 212.958C-13.9471 204.134 -32.221 197.188 -31.1743 216.748C-30.9591 220.666 -24.845 220.686 -25.0553 216.743Z" fill="#70635E"/>
<path d="M99.5648 202.891C97.5447 189.997 111.089 195.216 117.086 199.819C118.9 201.213 121.835 199.325 121.683 197.178C121.16 189.635 130.346 181.34 132.801 192.286C133.662 196.136 139.556 194.502 138.695 190.663C134.758 173.068 114.527 182.181 115.569 197.178C117.105 196.297 118.636 195.422 120.167 194.536C108.628 185.678 90.7946 186.187 93.6658 204.515C94.2773 208.403 100.171 206.745 99.5648 202.891Z" fill="#70635E"/>
<path d="M221.552 -9.07005C221.982 3.29524 234.142 9.03772 244.986 4.47411C248.567 2.96758 246.992 -2.95087 243.362 -1.41988C236.49 1.47579 227.964 -0.373261 227.666 -9.07005C227.529 -13.0027 221.415 -13.0174 221.552 -9.07005Z" fill="#70635E"/>
<path d="M279.433 4.78762C279.863 17.1529 292.023 22.8954 302.867 18.3318C306.443 16.8252 304.873 10.9067 301.243 12.4376C294.371 15.3333 285.85 13.4844 285.547 4.78762C285.41 0.854989 279.296 0.840315 279.433 4.78762Z" fill="#70635E"/>
<path d="M257.828 100.985C256.987 93.6231 260.117 88.1254 267.904 92.2096C269.9 93.2564 272.541 91.9748 272.502 89.5683C272.394 82.7008 278.998 78.1274 283.923 84.5938C286.281 87.6851 291.593 84.6475 289.206 81.5073C280.964 70.7023 266.163 75.8285 266.388 89.5683C267.924 88.6878 269.455 87.8122 270.986 86.9269C259.383 80.8421 250.271 88.3796 251.714 100.985C252.159 104.854 258.278 104.898 257.828 100.985Z" fill="#70635E"/>
<path d="M238.463 113.413C222.82 112.445 207.276 128.484 202.908 142.561C202.384 144.248 203.519 145.765 205.045 146.322C215.713 150.226 252.163 123.734 240.625 114.309C237.597 111.838 233.244 116.138 236.296 118.637C238.257 120.237 227.545 129.927 225.604 131.55C221.598 134.891 212.436 142.536 206.669 140.428C207.378 141.68 208.093 142.937 208.802 144.185C212.392 132.607 225.633 118.735 238.463 119.528C242.405 119.772 242.381 113.658 238.463 113.413Z" fill="#70635E"/>
<path d="M68.6324 196.43C53.0046 194.836 36.9415 210.336 31.9865 224.193C31.3751 225.901 32.6763 227.358 34.1241 227.95C44.6209 232.279 82.0297 207.348 70.7992 197.32C67.8693 194.708 63.5308 199.018 66.4753 201.649C69.0629 203.958 43.1584 225.108 35.748 222.056C36.4622 223.308 37.1714 224.565 37.8855 225.812C41.9893 214.333 55.8563 201.238 68.6373 202.54C72.5553 202.946 72.5161 196.826 68.6324 196.43Z" fill="#70635E"/>
<path d="M163.259 174.354C162.359 165.956 169.696 157.552 177.605 164.288C180.589 166.826 184.938 162.522 181.934 159.959C176.808 155.596 170.552 154.114 164.541 157.694C158.935 161.04 156.485 168.132 157.145 174.349C157.561 178.233 163.68 178.272 163.259 174.354Z" fill="#70635E"/>
<path d="M285.946 47.9098C290.094 39.1005 298.072 43.8206 301.858 50.3554C303.834 53.7647 309.116 50.688 307.14 47.2689C301.139 36.9238 286.875 31.6411 280.664 44.8233C278.996 48.3646 284.264 51.4706 285.946 47.9098Z" fill="#70635E"/>
<path d="M111.291 253.228C120.643 252.499 130.157 253.086 139.01 256.378C138.399 254.881 137.792 253.385 137.181 251.888C132.803 260.668 124.185 265.916 116.265 271.17C112.998 273.337 116.055 278.639 119.352 276.452C128.112 270.636 137.616 264.689 142.463 254.97C143.393 253.096 142.561 251.198 140.634 250.479C131.336 247.016 121.118 246.341 111.291 247.109C107.388 247.417 107.358 253.531 111.291 253.228Z" fill="#70635E"/>
<path d="M210.553 208.682C204.571 216.567 193.047 223.082 192.201 233.863C192.093 235.281 193.233 236.372 194.446 236.812C204.224 240.349 215.371 239.517 225.418 237.629C229.292 236.905 227.643 231.006 223.794 231.735C214.804 233.422 204.806 234.073 196.07 230.918C196.818 231.901 197.566 232.88 198.315 233.868C198.677 229.235 203.441 225.073 206.43 221.938C209.624 218.587 213.033 215.466 215.836 211.773C218.218 208.623 212.901 205.586 210.553 208.682Z" fill="#70635E"/>
<path d="M149.277 262.961C151.229 268.117 152.52 274.417 156.438 278.535C160.821 283.143 168.124 283.671 173.94 282.15C187.42 278.633 193.813 262.394 188.159 250.376C186.481 246.805 181.208 249.916 182.876 253.462C187.161 262.57 181.409 273.023 172.316 276.256C161.163 280.218 158.155 269.193 155.172 261.333C153.787 257.689 147.879 259.269 149.277 262.961Z" fill="#70635E"/>
<path opacity="0.6" d="M135.749 290.916C137.651 296.688 131.703 303.839 122.474 306.881C113.239 309.929 104.209 307.713 102.307 301.941C100.404 296.169 106.347 289.023 115.582 285.976C124.816 282.933 133.846 285.144 135.749 290.916Z" fill="#9B1922"/>
<path opacity="0.6" d="M239.285 256.677C241.193 262.449 235.24 269.6 226.01 272.642C216.77 275.69 207.746 273.474 205.843 267.702C203.941 261.93 209.883 254.784 219.118 251.737C228.353 248.694 237.378 250.905 239.285 256.677Z" fill="#9B1922"/>
<path d="M349.619 89.8523C340.335 101.176 327.451 108.268 316.001 117.092C312.924 119.464 315.961 124.781 319.087 122.375C330.939 113.238 344.331 105.891 353.947 94.1761C356.422 91.1533 352.118 86.805 349.619 89.8523Z" fill="#70635E"/>
<path d="M349.62 131.429C341.52 137.797 332.613 143.031 324.156 148.886C320.942 151.116 323.994 156.418 327.242 154.168C336.14 148 345.423 142.449 353.949 135.753C357.04 133.317 352.687 129.022 349.62 131.429Z" fill="#70635E"/>
<path d="M351.25 172.193C344.235 179.711 334.692 184.016 325.785 188.834C322.317 190.712 325.404 195.99 328.872 194.116C338.248 189.044 348.193 184.431 355.578 176.517C358.259 173.641 353.945 169.307 351.25 172.193Z" fill="#70635E"/>
<path d="M338.736 222.138C344.557 220.358 349.242 216.953 353.943 213.207C357.02 210.741 352.661 206.447 349.614 208.878C345.77 211.954 341.871 214.787 337.107 216.244C333.35 217.394 334.955 223.292 338.736 222.138Z" fill="#70635E"/>
<path d="M37.104 316.816C41.0464 316.816 41.0464 310.702 37.104 310.702C33.1616 310.702 33.1616 316.816 37.104 316.816Z" fill="#70635E"/>
<path d="M52.5936 330.673C56.5361 330.673 56.5361 324.559 52.5936 324.559C48.6512 324.559 48.6512 330.673 52.5936 330.673Z" fill="#70635E"/>
<path d="M32.2096 334.746C36.152 334.746 36.152 328.632 32.2096 328.632C28.2672 328.632 28.2672 334.746 32.2096 334.746Z" fill="#70635E"/>
<path d="M270.259 174.151C274.201 174.151 274.201 168.036 270.259 168.036C266.316 168.036 266.316 174.151 270.259 174.151Z" fill="#70635E"/>
<path d="M288.192 185.562C292.135 185.562 292.135 179.448 288.192 179.448C284.25 179.448 284.25 185.562 288.192 185.562Z" fill="#70635E"/>
<path d="M287.376 165.997C291.318 165.997 291.318 159.883 287.376 159.883C283.433 159.883 283.433 165.997 287.376 165.997Z" fill="#70635E"/>
</g>
<g opacity="0.6">
<path d="M1175.71 269.661C1159.96 279.485 1149.15 292.906 1138.29 307.698C1126.8 323.362 1113.23 337.312 1101.48 352.769C1086.76 372.122 1079.76 393.715 1099.4 411.962C1113.92 425.456 1136.18 433.219 1153.67 442.184C1174.29 452.747 1195.35 462.282 1216.82 470.984C1247.48 483.415 1277.76 503.099 1308.11 480.843C1332.39 463.04 1351.21 436.899 1366.93 411.55C1377.41 394.636 1402.7 360.922 1390.04 340.344C1381.82 326.989 1367.32 318.802 1353.55 312.424C1330.82 301.893 1306.38 294.252 1283.06 285.075C1250.42 272.221 1210.01 250.757 1175.71 269.661C1173.03 271.136 1175.49 275.181 1178.15 273.714C1209.17 256.62 1245.61 275.651 1275.28 287.074C1293.06 293.917 1310.7 301.113 1328.54 307.798C1347.38 314.86 1365.75 321.314 1380.34 335.717C1400.87 355.976 1374.49 389.911 1362.8 409.242C1348.96 432.111 1332.27 453.031 1312.52 471.083C1298.34 484.05 1285.34 489.619 1265.94 485.279C1249.69 481.643 1234.45 473.198 1219.13 466.86C1185.76 453.059 1153.78 437.026 1121.81 420.261C1106.38 412.171 1089.14 402.335 1091.72 382.259C1093.48 368.561 1104.78 355.815 1113.12 345.654C1132.88 321.587 1151.64 290.248 1178.15 273.714C1180.74 272.091 1178.3 268.046 1175.71 269.661Z" fill="#70635E"/>
<path d="M1087.12 386.96C1080.51 414.667 1073.26 442.939 1068.52 471.028C1065.18 490.801 1070.22 503.324 1086.54 514.411C1111.56 531.402 1140.12 544.601 1166.58 559.2C1192.76 573.646 1221.08 586.505 1250.79 591.31C1296.39 598.687 1324.53 555.564 1348.16 523.746C1354.94 514.619 1361.41 505.272 1367.74 495.825C1375.76 483.827 1376.1 463.769 1378.65 449.728C1384.09 419.774 1388.01 389.571 1393.07 359.557C1393.57 356.567 1388.98 355.412 1388.47 358.425C1384.93 379.434 1381.94 400.536 1378.61 421.58C1374.59 447.011 1373.33 479.263 1358.64 500.877C1336.45 533.533 1305.72 586.141 1261.46 587.413C1234.05 588.202 1205.14 573.414 1181.38 561.634C1157.3 549.695 1133.81 535.885 1110.29 522.867C1100.44 517.415 1090.24 511.791 1081.38 504.831C1068.17 494.454 1072.2 475.558 1075.12 461.469C1080.18 436.984 1085.91 412.415 1091.71 388.088C1092.42 385.125 1087.83 383.989 1087.12 386.96Z" fill="#70635E"/>
<path d="M1315.01 346.739C1294.43 335.826 1272.91 326.765 1251.57 317.461C1233.77 309.702 1209.46 305.394 1193.64 319.895C1181.6 330.933 1173.7 344.778 1163.59 357.474C1157.68 364.901 1148.21 374.552 1147.66 384.501C1146.76 400.571 1163.9 408.419 1176.35 414.003C1200.77 424.955 1225.47 436.92 1251.27 444.145C1269.5 449.247 1284.36 446.84 1296 431.055C1307.82 415.02 1317.03 395.742 1325.9 377.9C1332.75 364.109 1328.82 353.013 1315.01 346.739C1312.25 345.485 1309.92 349.605 1312.7 350.867C1332.85 360.021 1321.66 376.328 1314.17 389.226C1307.24 401.172 1302 413.903 1294.3 425.444C1269 463.406 1213.88 424.221 1182.31 411.418C1163.08 403.622 1144.75 394.216 1159.26 370.976C1170.98 352.206 1188.98 323.771 1210.05 316.358C1228.74 309.78 1250.7 322.182 1267.36 329.478C1282.66 336.181 1297.93 343.036 1312.7 350.867C1315.39 352.299 1317.71 348.168 1315.01 346.739Z" fill="#70635E"/>
<path d="M1220.37 429.551C1227.42 410.963 1232.74 390.962 1255.86 387.538C1273.34 384.942 1293.06 396.141 1307.03 405.507C1309.57 407.208 1311.85 403.062 1309.34 401.379C1294.14 391.197 1269.99 377.922 1250.84 383.536C1228.9 389.972 1223.18 408.915 1215.78 428.418C1214.7 431.267 1219.3 432.367 1220.37 429.551Z" fill="#70635E"/>
<path d="M1252.21 384.032C1244.92 367.023 1237.78 338.662 1253.73 324.496C1256.02 322.464 1252.6 319.189 1250.34 321.2C1233 336.595 1239.71 366.8 1247.68 385.373C1248.86 388.136 1253.42 386.835 1252.21 384.032Z" fill="#70635E"/>
<path d="M1264.1 327.281C1260.88 335.754 1257.94 344.004 1257.02 353.064C1256 363.169 1260.12 374.41 1263.16 383.829C1264.09 386.726 1268.63 385.401 1267.7 382.487C1264.91 373.855 1262.56 365.337 1261.74 356.26C1260.88 346.861 1265.43 337.004 1268.69 328.413C1269.77 325.565 1265.16 324.464 1264.1 327.281Z" fill="#70635E"/>
<path d="M1280.65 333.637C1273.26 350.352 1272.98 369.662 1275.91 387.459C1276.4 390.461 1280.94 389.096 1280.45 386.118C1277.74 369.674 1277.95 351.387 1284.77 335.949C1286 333.179 1281.88 330.849 1280.65 333.637Z" fill="#70635E"/>
<path d="M1295.24 341.292C1290.97 357.35 1289.01 373.891 1288.56 390.481C1288.48 393.531 1293.21 393.392 1293.29 390.352C1293.73 374.166 1295.67 358.083 1299.83 342.425C1300.62 339.472 1296.02 338.347 1295.24 341.292Z" fill="#70635E"/>
<path d="M1312.71 349.496C1306.92 364.535 1304.74 380.707 1298.06 395.426C1296.81 398.189 1300.93 400.515 1302.19 397.738C1309.05 382.618 1311.35 366.065 1317.3 350.625C1318.4 347.787 1313.79 346.687 1312.71 349.496Z" fill="#70635E"/>
<path d="M1248.73 381.079C1217.68 380.739 1186.34 378.925 1155.42 376.109C1152.39 375.834 1152.54 380.565 1155.55 380.838C1186.47 383.654 1217.81 385.469 1248.86 385.808C1251.91 385.839 1251.78 381.109 1248.73 381.079Z" fill="#70635E"/>
<path d="M1162.55 365.596C1175.05 367.541 1187.25 370.007 1199.9 370.621C1206.07 370.918 1220.24 372.52 1224.84 366.587C1235.7 352.59 1220.55 328.912 1215.04 315.422C1213.9 312.626 1209.34 313.932 1210.5 316.763C1215.79 329.725 1225.34 344.941 1223.28 359.459C1221.18 374.312 1171.59 362.24 1163.69 361.007C1160.7 360.535 1159.54 365.126 1162.55 365.596Z" fill="#70635E"/>
<path d="M1171.33 351.104C1178.37 356.106 1194.19 359.191 1201.2 352.869C1208.87 345.957 1197.96 330.985 1193.71 325.26C1191.91 322.831 1187.84 325.255 1189.66 327.711C1192.97 332.168 1202.32 343.958 1197.8 349.576C1195.42 352.544 1188.66 351.351 1185.54 350.921C1181.5 350.362 1177.01 349.371 1173.64 346.977C1171.15 345.209 1168.87 349.36 1171.33 351.104Z" fill="#70635E"/>
<path d="M1237.68 424.559C1240.64 425.289 1241.78 420.695 1238.82 419.965C1235.85 419.235 1234.72 423.829 1237.68 424.559Z" fill="#70635E"/>
<path d="M1247.62 409.953C1250.58 410.683 1251.71 406.089 1248.75 405.359C1245.79 404.629 1244.66 409.223 1247.62 409.953Z" fill="#70635E"/>
<path d="M1258.23 428.163C1258.39 428.2 1258.54 428.238 1258.69 428.276C1261.66 429.006 1262.79 424.413 1259.83 423.683C1259.67 423.644 1259.52 423.606 1259.37 423.569C1256.4 422.839 1255.27 427.433 1258.23 428.163Z" fill="#70635E"/>
<path d="M1265.73 403.696C1266.03 403.772 1266.34 403.847 1266.65 403.923C1269.61 404.653 1270.74 400.059 1267.78 399.329C1267.47 399.253 1267.17 399.178 1266.86 399.103C1263.9 398.372 1262.77 402.966 1265.73 403.696Z" fill="#70635E"/>
<path d="M1277.72 422.246C1280.68 422.976 1281.82 418.382 1278.86 417.652C1275.89 416.922 1274.76 421.516 1277.72 422.246Z" fill="#70635E"/>
<path d="M1285.15 411.894C1288.11 412.624 1289.24 408.03 1286.28 407.3C1283.32 406.57 1282.19 411.164 1285.15 411.894Z" fill="#70635E"/>
<path d="M1119.8 401.683C1114.25 395.823 1120.05 391.585 1126.09 391.608C1127.9 391.616 1128.94 389.511 1128.05 388.017C1126.24 384.966 1125.65 381.621 1125.76 378.111C1125.93 372.302 1129.87 373.17 1133.54 375.902C1135.98 377.728 1138.26 373.572 1135.85 371.774C1121.94 361.402 1118.21 380.714 1124 390.469C1124.65 389.27 1125.31 388.074 1125.96 386.879C1115.06 386.839 1108.33 396.441 1116.51 405.085C1118.61 407.303 1121.89 403.894 1119.8 401.683Z" fill="#70635E"/>
<path d="M1217.07 451.902C1221.71 449.645 1225.78 451.928 1228.18 456.102C1229.71 458.751 1233.75 456.294 1232.23 453.651C1228.45 447.077 1221.55 444.477 1214.63 447.848C1211.88 449.187 1214.35 453.227 1217.07 451.902Z" fill="#70635E"/>
<path d="M1180.42 438.482C1185.06 436.225 1189.13 438.509 1191.53 442.683C1193.06 445.332 1197.1 442.875 1195.58 440.231C1191.8 433.657 1184.9 431.057 1177.98 434.429C1175.23 435.767 1177.7 439.808 1180.42 438.482Z" fill="#70635E"/>
<path d="M1312.54 448.109C1308.35 440.234 1315.91 435.76 1322.76 437.244C1324.15 437.544 1325.87 436.469 1325.68 434.882C1325.44 432.767 1325.2 430.666 1325.05 428.54C1324.74 423.952 1330.33 414.391 1336.31 420.761C1338.4 422.99 1341.68 419.579 1339.6 417.364C1335.25 412.723 1329.9 413.643 1325.03 417.077C1319.21 421.178 1320.24 428.949 1320.95 435.011C1321.93 434.223 1322.91 433.438 1323.89 432.65C1312.47 430.172 1302.57 439.43 1308.49 450.557C1309.93 453.254 1313.97 450.794 1312.54 448.109Z" fill="#70635E"/>
<path d="M1227.4 299.877C1231.72 293.271 1237.27 295.97 1239.94 302.092C1240.64 303.695 1242.53 304.422 1243.91 303.07C1249.16 297.918 1258.45 297.354 1255.42 307.113C1254.52 310.032 1259.12 311.146 1260.02 308.245C1264.51 293.782 1249.25 291.211 1240.51 299.772C1241.83 300.099 1243.15 300.424 1244.47 300.75C1240.04 290.575 1229.88 287.449 1223.26 297.565C1221.59 300.127 1225.73 302.415 1227.4 299.877Z" fill="#70635E"/>
<path d="M1178.62 303.034C1172.39 288.924 1151.94 312.44 1150.81 320.432C1149.66 328.623 1158.22 328.071 1163.01 324.874C1169.2 320.747 1176.58 313.081 1178.76 305.76C1179.64 302.833 1175.04 301.712 1174.17 304.628C1172.83 309.127 1168.68 313.236 1165.51 316.513C1164.53 317.526 1154.77 326.097 1155.49 320.964C1156.15 316.277 1160.49 311.936 1163.74 308.848C1164.92 307.725 1172.61 301.043 1174.08 304.372C1175.29 307.122 1179.85 305.824 1178.62 303.034Z" fill="#70635E"/>
<path d="M1289.75 459.501C1288.64 447.233 1267.55 459.295 1264.73 465.233C1263.75 467.302 1264.01 469.611 1265.66 471.242C1267.65 473.219 1271.04 472.552 1273.41 471.874C1278.9 470.31 1285.84 466.575 1289.18 461.805C1290.94 459.303 1286.79 457.024 1285.05 459.494C1283.13 462.239 1279.12 464.135 1276.23 465.627C1274.4 466.575 1272.35 467.472 1270.29 467.767C1269.19 467.922 1268.6 468.093 1269.05 467.162C1270.5 464.086 1274.77 461.952 1277.71 460.657C1278.88 460.14 1284.87 457.948 1285.02 459.631C1285.29 462.652 1290.03 462.548 1289.75 459.501Z" fill="#70635E"/>
<path d="M1110.95 437.303C1110.7 430.448 1091.67 439.902 1093.44 444.903C1095.11 449.487 1108.81 441.238 1110.72 438.218" fill="#70635E"/>
<path d="M1271.83 508.145C1271.59 501.29 1252.55 510.745 1254.32 515.746C1256 520.33 1269.69 512.081 1271.61 509.06" fill="#70635E"/>
<path d="M1224.88 492.848C1219.95 495.224 1231.05 507.836 1234.29 504.798C1237.25 501.968 1228.21 493.354 1225.59 492.743" fill="#70635E"/>
<path d="M1127.29 513.138C1122.36 515.514 1133.47 528.126 1136.71 525.088C1139.67 522.258 1130.62 513.644 1128 513.033" fill="#70635E"/>
<path d="M1315.63 494.574C1315.38 487.719 1296.34 497.173 1298.11 502.174C1299.79 506.759 1313.48 498.509 1315.4 495.489" fill="#70635E"/>
<path d="M1099.09 498.507C1105.4 495.019 1087.49 481.653 1083.64 485.69C1080.13 489.449 1094.38 498.365 1098.12 498.729" fill="#70635E"/>
<path d="M1212.22 563.427C1218.53 559.939 1200.62 546.573 1196.77 550.609C1193.26 554.368 1207.52 563.284 1211.26 563.649" fill="#70635E"/>
<path d="M1324.93 535.168C1331.24 531.68 1313.33 518.313 1309.48 522.351C1305.97 526.11 1320.22 535.026 1323.96 535.39" fill="#70635E"/>
<path d="M1117.03 459.116C1112.59 456.517 1110.93 472.372 1114.81 473.261C1118.39 474.042 1118.66 462.055 1117.52 459.63" fill="#70635E"/>
<path d="M1234.55 531.938C1230.11 529.339 1228.45 545.194 1232.33 546.084C1235.91 546.864 1236.18 534.878 1235.04 532.453" fill="#70635E"/>
<path d="M1288.05 540.252C1283.61 537.654 1281.95 553.509 1285.83 554.398C1289.41 555.179 1289.68 543.192 1288.54 540.767" fill="#70635E"/>
<path d="M1176.98 470.611C1173.48 474.378 1188.59 479.459 1190.3 475.87C1191.84 472.551 1180.21 469.663 1177.59 470.25" fill="#70635E"/>
<path d="M1282.28 303.232C1276.53 304.803 1278.39 311.264 1280.41 315.101C1282.89 319.832 1287.3 325.155 1292.58 326.782C1294.88 327.491 1297.03 326.565 1298.39 324.699C1299.92 322.615 1298.67 319.484 1297.76 317.464C1295.51 312.45 1290.35 305.848 1285.22 303.516C1282.46 302.258 1280.14 306.383 1282.91 307.644C1286.13 309.113 1288.83 312.632 1290.91 315.384C1292.19 317.072 1293.39 318.913 1294.09 320.925C1294.44 321.936 1294.67 322.412 1293.71 322.196C1290.4 321.443 1287.48 317.342 1285.71 314.742C1285.09 313.834 1281.55 308.346 1283.62 307.783C1286.56 306.966 1285.23 302.426 1282.28 303.232Z" fill="#70635E"/>
<path d="M1143.89 406.044C1138.13 407.616 1140 414.076 1142.01 417.913C1144.49 422.645 1148.91 427.967 1154.19 429.595C1156.49 430.303 1158.63 429.377 1160 427.511C1161.52 425.428 1160.27 422.3 1159.37 420.277C1157.12 415.262 1151.95 408.661 1146.83 406.328C1144.07 405.067 1141.74 409.196 1144.51 410.456C1147.74 411.925 1150.44 415.443 1152.51 418.193C1153.79 419.885 1155 421.722 1155.7 423.734C1156.05 424.744 1156.27 425.221 1155.32 425.005C1152.01 424.252 1149.08 420.151 1147.32 417.551C1146.7 416.643 1143.16 411.155 1145.23 410.592C1148.17 409.778 1146.83 405.239 1143.89 406.044Z" fill="#70635E"/>
<path d="M1313.99 334.058C1314 328.132 1318.25 327.148 1322.47 330.616C1324.01 331.89 1326.54 331.06 1326.48 328.853C1326.31 322.717 1335.85 319.195 1335.51 326.526C1335.37 329.572 1340.1 329.431 1340.24 326.398C1340.49 320.998 1336.77 317.317 1331.37 317.619C1325.38 317.951 1321.6 323.345 1321.75 328.981C1323.09 328.395 1324.43 327.805 1325.76 327.218C1318.27 321.055 1309.28 323.882 1309.26 334.187C1309.25 337.237 1313.98 337.11 1313.99 334.058Z" fill="#70635E"/>
<path d="M1152 471.661C1143.26 465.608 1130.9 473.961 1135.98 485.255C1141.65 497.859 1165.7 485.271 1152 471.661Z" fill="#70635E"/>
<path d="M1202.23 495.249C1193.49 489.196 1181.13 497.549 1186.21 508.843C1191.87 521.447 1215.93 508.859 1202.23 495.249Z" fill="#70635E"/>
<path d="M1144.42 502.44C1139.64 525.538 1176.67 542.244 1183.02 515.853C1183.73 512.886 1179.14 511.75 1178.43 514.721C1173.53 535.095 1145.47 520.701 1149.01 503.572C1149.63 500.591 1145.04 499.447 1144.42 502.44Z" fill="#70635E"/>
<path d="M1211.45 533.419C1210.25 536.936 1204.72 538.22 1199.1 536.3C1193.48 534.377 1189.9 529.969 1191.1 526.454C1192.3 522.937 1197.83 521.653 1203.46 523.573C1209.08 525.496 1212.66 529.904 1211.45 533.419Z" fill="#F2414D"/>
<path d="M1135.21 497.575C1134.01 501.092 1128.48 502.376 1122.86 500.456C1117.23 498.532 1113.65 494.125 1114.86 490.61C1116.06 487.093 1121.59 485.809 1127.21 487.729C1132.83 489.652 1136.41 494.059 1135.21 497.575Z" fill="#F2414D"/>
</g>
<g opacity="0.6">
<path d="M490.248 473.46C476.197 450.661 451.446 432.84 429.722 417.851C400.661 397.801 366.474 380.501 333.551 367.833C289.645 350.937 209.405 348.521 209.379 413.184C209.354 477.451 311.502 457.454 351.485 464.073C371.857 467.445 391.855 472.735 411.448 479.199C428.541 484.837 441.728 492.852 456.782 502.067C472.517 511.699 488.238 486.172 490.432 474.42C490.885 472.002 487.067 471.756 486.618 474.153C483.883 488.786 468.426 507.53 452.932 494.565C445.709 488.521 437.327 484.686 428.572 481.359C403.606 471.874 378.031 464.969 351.757 460.254C327.379 455.883 302.673 458.177 278.087 456.651C264.581 455.81 250.969 452.877 238.065 448.938C218.906 443.09 213.192 427.337 213.2 408.884C213.227 338.021 317.209 363.581 353.884 380.668C379.087 392.41 404.282 405.721 427.538 420.993C448.742 434.919 473.403 453.374 486.798 475.115C488.078 477.191 491.537 475.562 490.248 473.46Z" fill="#70635E"/>
<path d="M474.969 460.597C470.321 474.095 461.669 484.645 451.453 494.388C449.674 496.086 452.143 499.009 453.927 497.306C464.589 487.136 473.722 475.958 478.575 461.867C479.376 459.539 475.771 458.266 474.969 460.597Z" fill="#70635E"/>
<path d="M465.115 449.203C459.997 463.952 450.837 476.275 441.035 488.23C439.469 490.143 442.625 492.306 444.174 490.412C454.198 478.186 463.496 465.535 468.718 450.472C469.529 448.144 465.923 446.873 465.115 449.203Z" fill="#70635E"/>
<path d="M464.861 502.159C465.002 523.091 483.127 533.143 499.005 542.848C499.89 543.391 501.05 543.264 501.663 542.371C514.164 524.239 501.102 497.345 483.298 487.834C481.148 486.684 478.946 489.813 481.116 490.973C496.986 499.453 509.87 523.732 498.524 540.189C499.41 540.03 500.3 539.87 501.186 539.712C486.781 530.909 468.807 521.688 468.674 502.429C468.659 499.978 464.843 499.688 464.861 502.159Z" fill="#70635E"/>
<path d="M489.456 477.355C505.683 473.913 519.658 483.607 531.512 493.539C539.515 500.25 507.689 506.187 501.843 505.263C499.411 504.876 499.155 508.694 501.576 509.077C513.143 510.911 531.24 506.765 538.494 496.89C539.167 495.973 538.773 494.91 538.014 494.227C524.514 482.074 507.942 469.527 488.736 473.599C486.328 474.11 487.037 477.869 489.456 477.355Z" fill="#70635E"/>
<path d="M534.024 494.329C520.291 499.175 505.604 495.253 491.7 493.268C489.261 492.918 489.003 496.735 491.433 497.081C506.185 499.191 521.148 502.902 535.678 497.779C538.003 496.96 536.326 493.519 534.024 494.329Z" fill="#70635E"/>
<path d="M536.082 493.968C526.497 490.274 516.236 486.97 506.257 484.419C500.138 482.853 492.191 480.521 486.044 482.88C483.741 483.764 485.409 487.206 487.698 486.332C493.906 483.946 503.388 487.536 509.36 489.189C517.846 491.54 526.613 494.417 534.815 497.575C537.114 498.46 538.381 494.853 536.082 493.968Z" fill="#70635E"/>
<path d="M502.466 540.088C501.881 523.051 491.807 504.974 479.207 493.819C477.361 492.183 475.205 495.348 477.025 496.958C488.502 507.121 498.121 524.298 498.652 539.822C498.735 542.257 502.55 542.557 502.466 540.088Z" fill="#70635E"/>
<path d="M500.833 537.626C493.282 524.134 482.098 513.157 474.582 499.649C473.384 497.505 469.93 499.146 471.129 501.303C478.652 514.82 489.839 525.798 497.381 539.28C498.582 541.422 502.036 539.782 500.833 537.626Z" fill="#70635E"/>
<path d="M423.905 481.282C430.947 475.165 434.739 465.283 438.063 456.823C441.29 448.619 444.792 438.827 444.004 429.848C443.789 427.395 440.035 428.136 440.247 430.571C440.981 438.911 437.305 447.89 434.456 455.555C431.545 463.386 427.9 472.749 421.429 478.366C419.569 479.984 422.045 482.897 423.905 481.282Z" fill="#70635E"/>
<path d="M411.899 476.566C422.942 460.184 427.972 441.136 431.173 421.849C431.575 419.419 427.759 419.168 427.36 421.582C424.266 440.207 419.425 458.559 408.76 474.384C407.381 476.428 410.524 478.608 411.899 476.566Z" fill="#70635E"/>
<path d="M388.958 469.973C399.271 450.124 404.576 428.15 407.5 406.077C407.825 403.636 404.009 403.375 403.687 405.81C400.859 427.149 395.798 448.586 385.819 467.791C384.698 469.952 387.826 472.156 388.958 469.973Z" fill="#70635E"/>
<path d="M372.032 465.99C384.648 445.255 389.032 420.547 390.521 396.629C390.673 394.173 386.859 393.896 386.707 396.363C385.258 419.597 381.155 443.655 368.893 463.807C367.615 465.909 370.752 468.097 372.032 465.99Z" fill="#70635E"/>
<path d="M351.216 460.596C359.225 436.322 361.251 410.796 367.55 386.102C368.154 383.733 364.555 382.442 363.944 384.831C357.65 409.512 355.615 435.063 347.61 459.325C346.838 461.664 350.442 462.94 351.216 460.596Z" fill="#70635E"/>
<path d="M334.24 459.568C343.908 433.585 341.006 405.121 350.673 379.167C351.537 376.854 347.928 375.59 347.067 377.897C337.394 403.865 340.298 432.327 330.634 458.297C329.773 460.611 333.384 461.877 334.24 459.568Z" fill="#70635E"/>
<path d="M311.486 459.481C321.174 430.23 323.066 399.459 328.329 369.273C328.752 366.847 324.935 366.598 324.515 369.006C319.313 398.854 317.46 429.282 307.882 458.212C307.109 460.547 310.713 461.823 311.486 459.481Z" fill="#70635E"/>
<path d="M290.803 459.129C301.109 428.731 298.867 395.197 308.813 364.422C309.57 362.078 305.966 360.802 305.207 363.151C295.274 393.889 297.483 427.518 287.197 457.859C286.407 460.194 290.012 461.468 290.803 459.129Z" fill="#70635E"/>
<path d="M272.894 457.733C275.484 439.418 275.797 420.907 277.966 402.551C279.654 388.305 284.667 374.868 283.224 360.33C282.979 357.876 279.226 358.614 279.467 361.053C280.849 374.96 276.501 388.712 274.153 402.284C271.008 420.436 271.658 439.202 269.08 457.467C268.733 459.906 272.55 460.165 272.894 457.733Z" fill="#70635E"/>
<path d="M259.594 455.535C257.58 440.262 259.073 425.429 261.646 410.344C264.457 393.867 265.803 377.426 267.885 360.861C268.193 358.414 264.377 358.153 264.072 360.594C261.989 377.159 260.92 393.643 257.831 410.08C254.957 425.383 253.803 440.802 255.836 456.261C256.16 458.7 259.914 457.97 259.594 455.535Z" fill="#70635E"/>
<path d="M240.102 451.179C243.697 436.454 243.474 421.439 244.226 406.387C244.921 392.473 247.977 378.67 246.503 364.728C246.24 362.278 242.489 363.013 242.745 365.451C244.172 378.913 241.435 392.694 240.408 406.122C239.283 420.861 240.03 435.412 236.496 449.909C235.917 452.28 239.518 453.574 240.102 451.179Z" fill="#70635E"/>
<path d="M225.583 441.561C227.511 418.897 229.769 396.258 230.723 373.527C230.829 371.071 227.013 370.793 226.91 373.257C225.955 395.992 223.699 418.627 221.769 441.294C221.558 443.752 225.373 444.023 225.583 441.561Z" fill="#70635E"/>
<path d="M217.894 435.453C211.45 431.276 204.907 434.559 201.537 440.892C198.003 447.538 198.726 455.741 204.403 460.864C206.231 462.516 208.386 459.351 206.585 457.725C199.57 451.394 205.517 431.988 215.712 438.592C217.779 439.933 219.961 436.794 217.894 435.453Z" fill="#70635E"/>
<path d="M205.689 457.338C188.536 450.987 172.044 472.007 184.533 486.359C186.155 488.218 189.07 485.743 187.451 483.885C177.415 472.356 190.842 455.921 204.418 460.944C206.734 461.799 208.002 458.191 205.689 457.338Z" fill="#70635E"/>
<path d="M184.751 482.934C172.139 484.507 161.04 490.689 159.081 504.194C157.443 515.483 165.793 524.194 176.894 522.306C179.327 521.891 178.604 518.134 176.171 518.549C164.452 520.543 160.869 508.962 164.066 499.691C167.152 490.747 177.108 487.736 185.477 486.692C187.92 486.385 187.187 482.628 184.751 482.934Z" fill="#70635E"/>
<path d="M175.008 520.386C170.585 532.15 172.719 544.016 184.323 550.441C194.115 555.859 204.203 547.907 211.707 542.264C213.681 540.777 211.192 537.873 209.233 539.346C203.042 544.005 196.161 549.932 187.859 547.795C175.982 544.743 175.094 531.024 178.617 521.657C179.482 519.348 175.875 518.081 175.008 520.386Z" fill="#70635E"/>
<path d="M208.252 541.554C205.968 563.421 233.268 580.001 245.324 557.091C246.459 554.935 243.327 552.733 242.185 554.908C231.884 574.474 210.166 560.01 212.066 541.821C212.32 539.368 208.505 539.104 208.252 541.554Z" fill="#70635E"/>
<path d="M436.275 573.235C443.631 570.057 449.485 563.049 448.849 554.627C448.116 544.896 440.2 541.491 432.813 536.92C430.723 535.626 428.535 538.763 430.631 540.059C435.563 543.107 441.442 545.356 444.172 550.809C448.092 558.634 441.394 566.86 434.621 569.783C432.352 570.764 434.015 574.21 436.275 573.235Z" fill="#70635E"/>
<path d="M432.518 539.797C437.564 534.991 441.733 528.992 441.385 521.741C441.035 514.496 435.184 509.497 429.191 506.422C427.026 505.313 424.822 508.441 427.009 509.561C432.31 512.288 437.314 516.165 437.62 522.597C437.889 528.221 433.856 533.244 430.04 536.878C428.261 538.577 430.731 541.5 432.518 539.797Z" fill="#70635E"/>
<path d="M428.944 508.329C434.244 502.011 438.742 491.609 433.049 484.201C431.541 482.243 428.635 484.728 430.131 486.676C434.666 492.573 429.837 501.341 425.805 506.147C424.218 508.039 427.377 510.2 428.944 508.329Z" fill="#70635E"/>
<path d="M197.174 522.211C197.024 519.46 197.664 516.835 199.651 514.811C203.738 510.647 206.319 521.227 206.686 522.663C207.054 524.112 209.256 524.95 210.135 523.394C212.133 519.847 215.231 516.55 219.62 518.028C224.205 519.575 223.284 525.653 222.008 529.017C221.13 531.325 224.739 532.589 225.614 530.287C227.632 524.973 227.631 517.695 221.713 514.822C215.599 511.851 209.986 515.909 206.997 521.209C208.147 521.452 209.297 521.695 210.446 521.941C209.329 517.552 207.278 509.445 201.114 510.271C195.641 511.005 193.094 516.928 193.367 521.944C193.492 524.368 197.308 524.675 197.174 522.211Z" fill="#70635E"/>
<path d="M253.375 476.711C246.118 471.349 221.844 481.965 229.781 491.111C233.258 495.114 241.901 491.485 245.702 489.892C249.853 488.154 257.265 483.792 254.108 478.273C252.889 476.147 249.434 477.781 250.656 479.927C252.469 483.092 245.417 485.868 243.377 486.725C241.513 487.505 234.604 490.383 232.695 488.638C230.066 486.233 237.581 481.914 239.022 481.163C242.302 479.439 247.81 477.355 251.189 479.849C253.178 481.318 255.354 478.17 253.375 476.711Z" fill="#70635E"/>
<path d="M389.531 483.391C384.132 490.624 394.659 514.939 403.84 507.03C407.851 503.572 404.255 494.905 402.682 491.104C400.956 486.935 396.63 479.525 391.093 482.657C388.961 483.868 390.595 487.323 392.747 486.109C395.916 484.313 398.667 491.389 399.513 493.425C400.288 495.304 403.125 502.202 401.366 504.112C398.956 506.727 394.665 499.18 393.922 497.744C392.213 494.457 390.158 488.94 392.67 485.573C394.149 483.594 390.999 481.424 389.531 483.391Z" fill="#70635E"/>
<path d="M212.96 480.213C213.107 478.562 213.515 476.679 214.687 475.422C216.055 473.961 217.6 474.813 218.926 475.89C220.845 477.448 223.011 474.291 221.108 472.751C218.755 470.842 215.621 469.982 212.98 471.873C210.444 473.694 209.414 476.969 209.147 479.946C208.926 482.405 212.74 482.671 212.96 480.213Z" fill="#70635E"/>
<path d="M256.797 532.389C261.763 528.576 265.358 535.271 263.35 539.62C262.315 541.859 265.932 543.107 266.956 540.89C268.663 537.194 267.952 532.851 265.203 529.856C262.163 526.538 257.669 526.904 254.323 529.471C252.36 530.974 254.849 533.878 256.797 532.389Z" fill="#70635E"/>
<path d="M279.953 499.486C281.247 497.139 284.379 491.552 287.934 492.454C291.383 493.332 290.601 499.189 290.213 501.615C289.434 506.48 297.068 506.984 297.841 502.148C298.879 495.658 297.455 487.694 290.474 485.242C283.231 482.697 276.79 489.456 273.672 495.12C271.318 499.401 277.579 503.796 279.953 499.486Z" fill="#70635E"/>
<path d="M341.262 518.106C342.556 515.76 345.685 510.172 349.242 511.078C352.692 511.953 351.908 517.806 351.519 520.234C350.74 525.099 358.375 525.603 359.147 520.768C360.185 514.277 358.76 506.317 351.782 503.865C344.536 501.319 338.099 508.077 334.984 513.741C332.626 518.025 338.887 522.419 341.262 518.106Z" fill="#70635E"/>
<path d="M293.043 518.104C288.465 530.18 292.231 543.259 305.097 547.768C318.15 552.344 329.915 542.926 334.21 531.12C335.899 526.484 328.684 523.949 326.998 528.58C323.981 536.876 316.867 543.171 307.637 540.556C298.482 537.96 297.324 528.378 300.256 520.645C302.005 516.03 294.789 513.498 293.043 518.104Z" fill="#70635E"/>
<path d="M324.404 485.3C323.105 475.447 333.25 480.24 336.041 485.416C336.964 487.123 339.447 486.649 339.674 484.724C340.028 481.749 341.231 477.395 345.165 478.279C348.717 479.076 349.843 483.484 350.193 486.523C350.475 488.973 354.232 488.241 353.95 485.8C353.399 481.066 350.674 474.791 345.095 474.379C339.059 473.939 336.481 479.215 335.858 484.454C337.067 484.224 338.278 483.993 339.491 483.762C334.387 474.304 318.766 471.726 320.645 486.019C320.969 488.468 324.723 487.737 324.404 485.3Z" fill="#70635E"/>
<path d="M378.037 536.953C382.851 533.746 388.63 538.7 386.666 543.923C385.797 546.234 389.406 547.499 390.273 545.194C393.695 536.087 383.311 528.878 375.563 534.035C373.511 535.404 376.012 538.302 378.037 536.953Z" fill="#70635E"/>
<path d="M387.49 575.379C387.97 565.216 396.224 561.706 403.608 568.98C404.934 570.287 407.288 569.378 406.944 567.382C405.495 558.966 416.285 549.233 419.562 560.993C420.221 563.349 423.982 562.65 423.319 560.27C418.738 543.835 400.827 554.393 403.188 568.102C404.299 567.57 405.411 567.037 406.523 566.504C396.852 556.978 384.329 561.235 383.673 575.111C383.559 577.572 387.376 577.849 387.49 575.379Z" fill="#70635E"/>
<path opacity="0.3" d="M260.946 518.922C266.682 520.943 272.355 519.674 273.618 516.089C274.881 512.504 271.255 507.96 265.519 505.94C259.783 503.919 254.109 505.187 252.846 508.772C251.583 512.357 255.21 516.902 260.946 518.922Z" fill="#9B1922"/>
<path opacity="0.3" d="M353.986 551.697C359.723 553.717 365.396 552.449 366.659 548.864C367.922 545.279 364.296 540.735 358.56 538.714C352.824 536.694 347.15 537.962 345.887 541.547C344.624 545.132 348.25 549.676 353.986 551.697Z" fill="#9B1922"/>
</g>
<g opacity="0.6">
<path d="M936.893 114.304C926.235 113.484 911.729 109.842 911.986 96.3289C912.119 89.188 920.388 83.5767 924.911 78.9973C926.991 76.8937 924.136 73.207 922.026 75.3436C915.102 82.3399 906.27 88.8282 907.538 99.7764C909.146 113.683 924.78 118.041 936.291 118.921C939.28 119.151 939.888 114.531 936.893 114.304Z" fill="#70635E"/>
<path d="M923.59 74.4325C915.27 72.6858 907.435 68.2843 905.402 59.4421C903.326 50.3919 910.428 42.7827 917.299 38.2386C919.802 36.5829 916.903 32.935 914.413 34.585C905.649 40.3816 899.254 49.136 900.786 60.0494C902.332 71.0704 913.165 76.9878 922.989 79.0495C925.937 79.6641 926.507 75.0401 923.59 74.4325Z" fill="#70635E"/>
<path d="M916.158 34.102C909.556 33.2232 904.572 28.5554 903.291 21.9999C901.765 14.1934 907.847 9.8775 914.91 9.42538C917.915 9.23569 917.28 4.61949 914.303 4.80933C905.012 5.4058 898.316 11.1981 898.478 20.7817C898.638 30.1315 906.71 37.5428 915.557 38.719C918.541 39.1123 919.131 34.4962 916.158 34.102Z" fill="#70635E"/>
<path d="M916.612 5.49999C912.728 2.34489 909.554 -2.58594 909.616 -7.75167C909.695 -14.1499 916.198 -14.1104 920.968 -13.1003C923.912 -12.476 924.482 -17.1 921.569 -17.7174C914.44 -19.2309 906.716 -17.7761 905.129 -9.65338C903.749 -2.57232 908.595 4.98451 913.824 9.22907C916.152 11.1209 918.94 7.39186 916.612 5.49999Z" fill="#70635E"/>
<path d="M934.731 115.217C929.176 123.883 925.103 135.025 931.317 144.576C936.835 153.054 946.158 155.29 955.243 151.19C957.977 149.958 956.172 145.666 953.431 146.901C945.769 150.359 938.423 148.255 934.471 140.66C930.468 132.965 934.238 124.592 938.456 118.006C940.068 115.494 936.352 112.68 934.731 115.217Z" fill="#70635E"/>
<path d="M952.207 149.78C952.575 160.356 948.49 169.506 956.29 178.572C962.044 185.264 971.528 182.876 978.447 179.804C981.188 178.585 979.383 174.293 976.636 175.514C969.584 178.646 962.032 180.219 957.609 172.399C953.541 165.209 957.097 156.865 956.827 149.171C956.722 146.166 952.106 146.81 952.207 149.78Z" fill="#70635E"/>
<path d="M974.804 177.541C973.967 187.737 979.359 201.354 990.483 203.651C1000.95 205.814 1010.18 198.652 1016.21 190.803C1018.04 188.424 1014.31 185.631 1012.48 188.015C1008.29 193.466 1002.81 198.274 995.815 199.378C984.733 201.123 978.68 187.214 979.421 178.142C979.67 175.15 975.048 174.547 974.804 177.541Z" fill="#70635E"/>
<path d="M1014.26 192.241C1019.08 194.569 1022.46 198.926 1027.34 201.252C1031.39 203.189 1036.64 202.307 1040.5 200.389C1048.88 196.225 1048.82 184.937 1046.64 177.289C1045.82 174.405 1041.54 176.253 1042.35 179.101C1044.41 186.329 1043.56 195.626 1034.85 197.449C1027.21 199.05 1022.17 190.902 1016.02 187.928C1013.31 186.619 1011.57 190.94 1014.26 192.241Z" fill="#70635E"/>
<path d="M1044.04 180.168C1053.5 183.611 1067.12 182.913 1072.13 172.741C1076.17 164.505 1070.18 153.407 1065.12 147.072C1063.25 144.729 1059.59 147.609 1061.47 149.958C1065.31 154.778 1068.6 160.862 1068.59 167.182C1068.58 178.311 1053.31 178.584 1045.79 175.854C1042.97 174.829 1041.21 179.143 1044.04 180.168Z" fill="#70635E"/>
<path d="M1064.02 150.232C1074.9 145.711 1085.99 139.629 1084.53 126.064C1083.41 115.592 1072.9 109.465 1063.24 109.711C1060.24 109.787 1060.88 114.404 1063.85 114.327C1071.59 114.132 1078.37 118.965 1079.92 126.671C1082.11 137.659 1070.23 142.611 1062.2 145.943C1059.43 147.094 1061.24 151.383 1064.02 150.232Z" fill="#70635E"/>
<path d="M1064.02 114.343C1085.56 107.283 1078.97 73.2783 1055.46 78.1216C1052.53 78.7235 1053.12 83.3454 1056.06 82.7377C1074.5 78.9428 1078.74 104.634 1062.21 110.053C1059.35 110.989 1061.19 115.271 1064.02 114.343Z" fill="#70635E"/>
<path d="M1057.62 81.8255C1068.83 66.6306 1066.51 38.6268 1042.56 41.616C1039.58 41.9873 1040.2 46.6024 1043.17 46.2321C1062.99 43.7597 1062.53 67.3367 1053.9 79.0361C1052.11 81.4474 1055.84 84.2451 1057.62 81.8255Z" fill="#70635E"/>
<path d="M1044.73 45.3173C1057.29 29.6198 1048.81 4.51649 1026.47 9.49312C1023.56 10.1411 1024.15 14.7644 1027.08 14.1092C1045.51 10.0052 1051.09 29.9234 1041.01 42.528C1039.13 44.8698 1042.85 47.6592 1044.73 45.3173Z" fill="#70635E"/>
<path d="M1028.07 13.0378C1030.17 5.96245 1032.97 -3.70147 1028.37 -10.4549C1023.16 -18.0899 1015.49 -18.2342 1006.98 -18.923C1003.99 -19.1646 1003.39 -14.5496 1006.38 -14.3059C1011.39 -13.9002 1016.74 -14.1078 1021.22 -11.5023C1028.96 -6.99518 1025.74 4.59516 1023.75 11.2837C1022.91 14.1412 1027.22 15.9177 1028.07 13.0378Z" fill="#70635E"/>
<path d="M960.885 7.7859C933.269 20.0247 937.425 53.6063 943.996 77.7777C951.661 105.979 964.63 135.102 993.563 146.075C1006.7 151.06 1022.56 147.293 1029.56 134.417C1039.04 116.967 1035.17 98.7439 1028.27 81.0663C1019.18 57.7885 997.6 -5.59086 960.885 7.7859C958.061 8.81684 959.887 13.1003 962.697 12.0752C995.827 0.00611074 1015.13 62.343 1023.98 82.8814C1031.98 101.442 1035.5 123.767 1019.35 139.242C1004.41 153.561 977.841 134.884 968.834 122.502C950.903 97.8359 923.917 29.2641 962.693 12.0766C965.439 10.8604 963.634 6.56821 960.885 7.7859Z" fill="#70635E"/>
<path d="M944.489 68.2892C970.035 58.9224 994.45 81.0841 1020.22 71.6818C1023.05 70.6508 1021.22 66.3674 1018.41 67.3925C993.013 76.6569 968.594 54.4967 942.678 63.9999C939.855 65.0343 941.681 69.3178 944.489 68.2892Z" fill="#70635E"/>
<path d="M956.048 102.833C970.039 96.9352 982.852 105.473 997.155 105.494C1009.25 105.512 1017.94 100.889 1029.21 98.1261C1032.09 97.4197 1031.51 92.795 1028.6 93.51C1012.59 97.4335 999.882 103.497 982.792 98.9643C972.33 96.194 964.622 94.1643 954.236 98.5433C951.47 99.7115 953.282 104.001 956.048 102.833Z" fill="#70635E"/>
<path d="M949.6 86.7649C955.273 85.6462 960.648 83.6269 966.382 82.8827C974.121 81.8745 982.944 84.6984 990.577 85.882C1002.31 87.7058 1013.73 86.8485 1024.75 82.4048C1027.54 81.2798 1025.72 76.9934 1022.94 78.1156C1008.29 84.0227 993.971 81.8078 978.927 79.1812C967.934 77.2615 959.642 80.0486 948.992 82.1489C946.054 82.7268 946.654 87.3457 949.6 86.7649Z" fill="#70635E"/>
<path d="M969.324 62.6874C961.397 52.486 953.726 42.099 946.5 31.3866C944.823 28.9005 941.174 31.7965 942.846 34.2724C950.069 44.9862 957.744 55.3751 965.671 65.5732C967.512 67.9413 971.172 65.061 969.324 62.6874Z" fill="#70635E"/>
<path d="M992.164 67.6991C979.844 50.4807 970.288 31.1776 955.2 16.087C953.106 13.9914 949.42 16.8501 951.546 18.9728C966.636 34.0667 976.187 53.3679 988.51 70.5848C990.258 73.0288 993.909 70.1362 992.164 67.6991Z" fill="#70635E"/>
<path d="M1009.47 70.1588C999.718 48.2207 982.196 28.7276 968.811 8.82184C967.136 6.33079 963.492 9.2288 965.157 11.7076C978.25 31.1789 995.664 50.56 1005.18 71.9705C1006.4 74.7111 1010.69 72.9062 1009.47 70.1588Z" fill="#70635E"/>
<path d="M980.795 117.147C983.561 115.978 981.749 111.689 978.983 112.857C976.218 114.025 978.029 118.315 980.795 117.147Z" fill="#70635E"/>
<path d="M992.424 114.762C995.19 113.594 993.378 109.305 990.612 110.473C987.847 111.641 989.658 115.93 992.424 114.762Z" fill="#70635E"/>
<path d="M993.207 128.584C995.973 127.416 994.161 123.127 991.395 124.295C988.629 125.463 990.441 129.752 993.207 128.584Z" fill="#70635E"/>
<path d="M1006.65 130.488C1009.41 129.32 1007.6 125.031 1004.84 126.199C1002.07 127.367 1003.88 131.656 1006.65 130.488Z" fill="#70635E"/>
<path d="M1006.66 117.344C1009.42 116.175 1007.61 111.886 1004.84 113.054C1002.08 114.222 1003.89 118.512 1006.66 117.344Z" fill="#70635E"/>
<path d="M1016.92 127.935C1017.13 128.019 1017.33 128.098 1017.53 128.183C1020.31 129.313 1022.07 124.998 1019.28 123.868C1019.08 123.785 1018.88 123.704 1018.67 123.621C1015.89 122.491 1014.14 126.806 1016.92 127.935Z" fill="#70635E"/>
<path d="M1019.69 115.883C1022.45 114.715 1020.64 110.426 1017.87 111.594C1015.11 112.762 1016.92 117.052 1019.69 115.883Z" fill="#70635E"/>
<path d="M1045.13 120.532C1040.94 128.229 1036.99 136.388 1034.98 144.955C1033.55 151.009 1035.84 156.554 1042.79 154.205C1051.12 151.388 1054.36 139.195 1056.22 131.716C1057.15 127.996 1057.74 123.335 1055.24 120.033C1052.56 116.5 1049.01 116.845 1045.85 119.58C1043.58 121.535 1046.46 125.202 1048.73 123.233C1053.17 119.398 1052.12 128.658 1051.85 130.03C1051.17 133.482 1049.93 136.838 1048.6 140.085C1047.5 142.781 1046.13 145.349 1044.33 147.655C1043.89 148.227 1039.59 151.319 1039.25 150.07C1038.11 145.876 1041.27 139.885 1042.8 136.134C1044.73 131.391 1047 126.771 1049.45 122.28C1050.89 119.647 1046.56 117.926 1045.13 120.532Z" fill="#70635E"/>
<path d="M959.907 146.026C965.28 152.916 971.199 159.874 978.235 165.122C983.507 169.054 989.936 169.015 990.025 161.097C990.125 152.365 980.424 144.618 974.05 139.972C968.136 135.66 956.224 134.99 959.591 145.489C960.508 148.348 964.79 146.511 963.88 143.677C962.248 138.588 970.186 142.962 971.262 143.701C974.154 145.694 976.786 148.116 979.229 150.626C981.236 152.686 983.133 154.966 984.517 157.495C984.839 158.087 986.199 163.384 985.029 163.381C981.053 163.358 976.083 157.269 973.627 154.756C970.043 151.098 966.711 147.172 963.564 143.139C961.716 140.774 958.057 143.658 959.907 146.026Z" fill="#70635E"/>
<path d="M928.395 1.28375C925.501 9.58651 922.786 18.4199 922.235 27.2334C921.863 33.1605 924.947 39.2256 931.497 35.1934C939.125 30.4992 940.505 18.7358 941.063 10.6072C941.562 3.34445 936.05 -7.91408 928.688 0.763427C926.744 3.05258 930.478 5.83417 932.417 3.55135C936.043 -0.721659 936.494 8.78032 936.446 10.0058C936.318 13.1409 935.771 16.259 935.137 19.3249C934.558 22.1373 933.661 24.8574 932.48 27.4709C932.157 28.1897 928.544 33.153 927.374 31.9045C925.148 29.5167 927.623 21.5243 928.188 18.8395C929.309 13.4813 930.913 8.20229 932.713 3.03441C933.693 0.206094 929.386 -1.55723 928.395 1.28375Z" fill="#70635E"/>
<path d="M1008.12 158.522C1004.56 163.806 1006.4 169.846 1012.19 172.431C1018.08 175.062 1024.4 171.771 1026.41 165.879C1027.38 163.048 1023.07 161.282 1022.1 164.127C1020.9 167.625 1017.95 169.522 1014.31 168.265C1011.09 167.152 1009.93 164.165 1011.84 161.31C1013.51 158.828 1009.79 156.019 1008.12 158.522Z" fill="#70635E"/>
<path d="M1048.26 95.5671C1034.37 92.1194 1037.44 79.4076 1045.14 71.4265C1046.42 70.1077 1045.13 67.9571 1043.58 67.724C1038.17 66.9096 1029.99 61.5149 1035.14 54.9275C1036.99 52.5606 1033.26 49.7727 1031.41 52.1396C1024.35 61.1718 1033.48 70.9124 1042.98 72.341C1042.46 71.1057 1041.94 69.8739 1041.41 68.6386C1030.58 79.8579 1031.02 96.0544 1047.66 100.184C1050.58 100.907 1051.14 96.2772 1048.26 95.5671Z" fill="#70635E"/>
<path d="M1010.27 24.5717C1009.79 28.3466 1011.87 31.4982 1015.38 32.8465C1019.06 34.2573 1023.16 33.0476 1025.67 30.1158C1027.63 27.8375 1023.89 25.0574 1021.95 27.3279C1019.84 29.7772 1014.4 29.0159 1014.89 25.1731C1015.27 22.1846 1010.65 21.593 1010.27 24.5717Z" fill="#70635E"/>
<path d="M955.365 -0.496154C952.458 -8.45122 959.158 -9.74455 964.645 -5.66542C966.188 -4.52161 968.745 -5.8 968.347 -7.83535C966.362 -17.9998 981.078 -18.7728 979.516 -9.94897C978.99 -6.98131 983.614 -6.40293 984.133 -9.34763C986.91 -25.0411 960.448 -24.0376 963.731 -7.22808C964.966 -7.95186 966.197 -8.67415 967.433 -9.3945C957.895 -16.4775 946.614 -10.8956 951.072 1.31703C952.107 4.13927 956.39 2.31381 955.365 -0.496154Z" fill="#70635E"/>
<path d="M947.701 105.189C944.153 104.868 940.696 103.566 938.306 100.828C935.353 97.445 938.056 94.0995 940.985 91.9202C943.395 90.1299 940.509 86.4762 938.099 88.2665C933.63 91.5857 930.61 96.6704 933.545 102.058C936.15 106.837 941.905 109.339 947.102 109.809C950.088 110.072 950.692 105.454 947.701 105.189Z" fill="#70635E"/>
<path d="M934.171 73.3959C930.463 71.0317 927.407 65.606 932.716 63.1535C935.437 61.8989 933.635 57.6053 930.904 58.8642C922.406 62.7849 924.421 72.686 931.38 77.1264C933.895 78.7248 936.706 75.014 934.171 73.3959Z" fill="#70635E"/>
<path d="M1039.8 201.402C1118.34 168.227 1196.88 135.052 1275.42 101.877C1278.19 100.709 1276.38 96.4198 1273.61 97.588C1195.07 130.763 1116.53 163.938 1037.99 197.112C1035.22 198.281 1037.03 202.57 1039.8 201.402Z" fill="#70635E"/>
<path d="M1276.68 98.0739C1277.32 60.0177 1266.88 20.3846 1254.73 -15.3249C1237.75 -65.2227 1208.78 -114.932 1160.39 -139.598C1157.71 -140.964 1155.98 -136.64 1158.64 -135.282C1206.28 -110.997 1233.23 -62.1654 1250.44 -13.5118C1262.62 20.9145 1272.68 60.5749 1272.05 97.4755C1272.01 100.449 1276.62 101.072 1276.68 98.0739Z" fill="#70635E"/>
<path d="M1274.36 101.982C1298.11 104.327 1311.75 73.2732 1286.91 63.3964C1287.09 64.7253 1287.28 66.0528 1287.47 67.3788C1293.46 63.3955 1302.8 59.3105 1301.89 50.5064C1300.74 39.5296 1293.41 34.9232 1283 33.8185C1280.01 33.5001 1279.41 38.1192 1282.4 38.4356C1290.43 39.2877 1302.31 45.0965 1295.63 55.8945C1293.51 59.3273 1287.85 61.5505 1284.58 63.7266C1283.1 64.7146 1283.62 67.1018 1285.15 67.709C1305.47 75.7803 1293.05 99.1483 1274.96 97.3617C1271.97 97.0682 1271.37 101.684 1274.36 101.982Z" fill="#70635E"/>
<path d="M1283 38.4387C1306.16 33.6297 1297.79 0.846313 1275.9 1.69031C1276.3 3.17492 1276.71 4.65658 1277.11 6.14119C1284.05 2.3062 1292.48 -5.26812 1289.74 -14.3209C1285.98 -26.7407 1276.43 -26.5901 1265.34 -25.6944C1262.34 -25.4529 1262.97 -20.8353 1265.95 -21.0784C1269.26 -21.3438 1272.51 -21.7229 1275.84 -21.658C1293.07 -21.3188 1282.88 -2.33089 1275.3 1.85192C1272.97 3.13346 1273.81 6.4091 1276.51 6.30631C1292.41 5.69459 1299.75 30.2158 1282.4 33.8227C1279.47 34.428 1280.06 39.0498 1283 38.4387Z" fill="#70635E"/>
<path d="M1266.22 -10.6451C1263.92 -6.92756 1264.05 -2.81787 1267.19 0.387587C1269.26 2.51193 1272.94 -0.345267 1270.84 -2.49812C1269.25 -4.12395 1268.68 -5.81634 1269.94 -7.85717C1271.5 -10.388 1267.79 -13.2081 1266.22 -10.6451Z" fill="#70635E"/>
<path d="M1277.9 56.5116C1281.7 57.4241 1285.35 55.7049 1286.61 51.9302C1287.56 49.0949 1283.26 47.3281 1282.3 50.1795C1281.65 52.1145 1280.37 52.3396 1278.5 51.8911C1275.58 51.1896 1275.01 55.8191 1277.9 56.5116Z" fill="#70635E"/>
<path d="M1092.15 177.934C1098.07 169.803 1099.79 158.973 1099.34 149.123C1099.2 146.117 1094.59 146.759 1094.72 149.731C1095.12 158.343 1093.59 168.04 1088.42 175.146C1086.66 177.565 1090.38 180.367 1092.15 177.934Z" fill="#70635E"/>
<path d="M1133.17 159.195C1133.95 148.523 1136.07 137.728 1132.67 127.293C1131.74 124.434 1127.46 126.272 1128.38 129.105C1131.48 138.63 1129.26 148.859 1128.55 158.595C1128.33 161.582 1132.95 162.192 1133.17 159.195Z" fill="#70635E"/>
<path d="M1174.52 142.231C1174.99 136.258 1173.84 130.492 1172.9 124.619C1172.42 121.654 1167.8 122.263 1168.28 125.227C1169.16 130.676 1170.34 136.079 1169.9 141.631C1169.67 144.62 1174.29 145.227 1174.52 142.231Z" fill="#70635E"/>
<path d="M1210.19 126.155C1211.2 114.507 1209.86 103.1 1207.98 91.6065C1207.5 88.6443 1202.88 89.253 1203.36 92.2137C1205.18 103.304 1206.55 114.302 1205.57 125.557C1205.31 128.543 1209.93 129.148 1210.19 126.155Z" fill="#70635E"/>
<path d="M1242.79 112.387C1243.35 106.282 1243.33 100.167 1242.88 94.0524C1242.66 91.0471 1238.04 91.6827 1238.26 94.6596C1238.68 100.379 1238.7 106.077 1238.17 111.788C1237.89 114.779 1242.51 115.38 1242.79 112.387Z" fill="#70635E"/>
<path d="M1265.71 103.213C1266.58 94.7272 1265.65 85.9754 1262.49 78.0225C1261.38 75.2272 1257.09 77.0458 1258.2 79.8342C1261.05 87.0196 1261.88 94.9481 1261.09 102.613C1260.78 105.605 1265.4 106.203 1265.71 103.213Z" fill="#70635E"/>
<path d="M1090.28 17.7423C1099.59 16.807 1110.7 16.983 1119.34 20.9887C1118.92 19.9798 1118.49 18.9676 1118.06 17.9553C1114.2 26.5485 1105.85 31.9476 1099.47 38.5515C1097.39 40.7035 1101.14 43.4759 1103.2 41.3395C1109.96 34.3457 1118.27 28.8325 1122.38 19.7026C1122.91 18.5051 1122.21 17.1882 1121.1 16.6692C1111.7 12.3128 1099.81 12.1019 1089.67 13.1179C1086.67 13.4251 1087.3 18.0422 1090.28 17.7423Z" fill="#70635E"/>
<path d="M1190.25 -0.0452463C1180.93 0.890047 1169.82 0.714011 1161.18 -3.29162C1161.61 -2.28279 1162.04 -1.27057 1162.47 -0.2583C1166.33 -8.85289 1174.67 -14.2506 1181.05 -20.8545C1183.13 -23.0099 1179.38 -25.7788 1177.32 -23.6424C1170.57 -16.6487 1162.25 -11.1354 1158.15 -2.00555C1157.61 -0.808075 1158.31 0.508889 1159.43 1.02782C1168.83 5.38422 1180.72 5.59517 1190.86 4.57908C1193.85 4.27196 1193.23 -0.345123 1190.25 -0.0452463Z" fill="#70635E"/>
<path d="M1134.99 26.0724C1136.53 37.3683 1146.66 42.473 1157.15 39.2807C1168.99 35.6778 1170.27 23.4306 1163.33 14.6092C1161.47 12.2517 1157.81 15.1306 1159.67 17.4949C1164.85 24.0748 1164.27 31.4823 1156.02 34.7529C1148.33 37.8009 1140.72 33.6275 1139.61 25.4652C1139.21 22.4848 1134.59 23.1018 1134.99 26.0724Z" fill="#70635E"/>
<path opacity="0.3" d="M1122.09 53.4219C1123.89 57.6871 1119.82 63.479 1113 66.3603C1106.17 69.2431 1099.19 68.1226 1097.39 63.8574C1095.58 59.5922 1099.65 53.8018 1106.48 50.919C1113.3 48.039 1120.29 49.1566 1122.09 53.4219Z" fill="#9B1922"/>
<path opacity="0.3" d="M1200.93 29.2201C1207.75 26.3384 1211.82 20.5456 1210.02 16.2816C1208.22 12.0176 1201.23 10.897 1194.41 13.7787C1187.59 16.6604 1183.51 22.4531 1185.32 26.7171C1187.12 30.9812 1194.11 32.1017 1200.93 29.2201Z" fill="#9B1922"/>
</g>
</g>
<defs>
<clipPath id="clip0_2063_28780">
<rect width="1312" height="546" fill="white"/>
</clipPath>
</defs>
</svg>
