<svg width="148" height="32" viewBox="0 0 148 32" fill="none" xmlns="http://www.w3.org/2000/svg">
<path d="M4.19336 0V15.4316C5.87071 13.6921 7.7717 12.8224 9.89633 12.8224C12.344 12.8224 14.3817 13.7356 16.0093 15.562C17.637 17.376 18.4508 19.6374 18.4508 22.346C18.4508 25.1415 17.6308 27.4525 15.9907 29.279C14.363 31.093 12.3067 32 9.82178 32C7.722 32 5.84586 31.1924 4.19336 29.5772V31.4782H0V0H4.19336ZM14.1642 22.5323C14.1642 20.7929 13.6921 19.3764 12.7478 18.2831C11.7911 17.1648 10.5921 16.6057 9.15085 16.6057C7.61017 16.6057 6.35527 17.1462 5.38614 18.2271C4.42943 19.2957 3.95108 20.6872 3.95108 22.4019C3.95108 24.1662 4.42322 25.5764 5.3675 26.6325C6.31178 27.7135 7.55426 28.2539 9.09493 28.2539C10.5486 28.2539 11.7538 27.7135 12.7105 26.6325C13.6797 25.5391 14.1642 24.1724 14.1642 22.5323Z" fill="#9B1922"/>
<path d="M18.9756 22.2714C18.9756 19.6498 19.9137 17.4195 21.7898 15.5807C23.666 13.7418 25.9521 12.8224 28.6483 12.8224C31.3569 12.8224 33.6555 13.748 35.544 15.5993C37.4078 17.4506 38.3396 19.7243 38.3396 22.4205C38.3396 25.1415 37.4016 27.4215 35.5254 29.2603C33.6368 31.0868 31.3196 32 28.5737 32C25.8527 32 23.5728 31.0681 21.7339 29.2044C19.895 27.3656 18.9756 25.0546 18.9756 22.2714ZM23.2622 22.346C23.2622 24.16 23.7467 25.595 24.7159 26.6511C25.7098 27.7197 27.0207 28.2539 28.6483 28.2539C30.2884 28.2539 31.5992 27.7259 32.5807 26.6698C33.5623 25.6137 34.0531 24.2035 34.0531 22.4391C34.0531 20.6748 33.5623 19.2646 32.5807 18.2085C31.5868 17.14 30.2759 16.6057 28.6483 16.6057C27.0455 16.6057 25.7471 17.14 24.7531 18.2085C23.7591 19.277 23.2622 20.6562 23.2622 22.346ZM22.1812 9.80315C22.1812 7.9504 23.6831 6.44846 25.5359 6.44846H35.2459C35.2459 8.3012 33.7439 9.80315 31.8912 9.80315H22.1812Z" fill="#9B1922"/>
<path d="M39.7404 13.3256H43.9337V14.947C44.7041 14.1394 45.3874 13.5865 45.9838 13.2883C46.5927 12.9777 47.3133 12.8224 48.1457 12.8224C49.2516 12.8224 50.4071 13.1827 51.6123 13.9033L49.6926 17.7426C48.8974 17.171 48.1209 16.8853 47.363 16.8853C45.0768 16.8853 43.9337 18.6123 43.9337 22.0664V31.4782H39.7404V13.3256Z" fill="#9B1922"/>
<path d="M55.7527 13.3256V23.7437C55.7527 26.7505 56.9393 28.2539 59.3124 28.2539C61.6855 28.2539 62.8721 26.7505 62.8721 23.7437V13.3256H67.0654V23.8369C67.0654 25.2906 66.8853 26.5455 66.525 27.6016C66.1771 28.5459 65.5745 29.397 64.7172 30.1549C63.3007 31.385 61.4991 32 59.3124 32C57.1381 32 55.3427 31.385 53.9262 30.1549C53.0565 29.397 52.4415 28.5459 52.0812 27.6016C51.7333 26.7567 51.5593 25.5018 51.5593 23.8369V13.3256H55.7527Z" fill="#9B1922"/>
</svg>
