<svg width="766" height="746" viewBox="0 0 766 746" fill="none" xmlns="http://www.w3.org/2000/svg">
<g clip-path="url(#clip0_2063_28809)">
<g opacity="0.9">
<path opacity="0.29" d="M250 313.216C250 323.885 201.043 344.654 143.389 344.654C85.7357 344.654 39 330.24 39 319.571C39 308.903 85.7377 300.253 143.389 300.253C201.041 300.253 250 302.55 250 313.216Z" fill="#67576D"/>
<path d="M144.903 206.407C116.224 208.319 56.8669 212.148 52.561 235.115C50.4962 246.123 48.7335 311.191 52.561 319.324C56.3884 327.457 117.152 340.375 175.044 334.156C232.937 327.936 245.257 317.034 246.214 308.422C247.171 299.81 254.798 234.666 245.229 227.968C235.661 221.27 195.141 203.058 144.903 206.407Z" fill="#67576D"/>
<mask id="mask0_2063_28809" style="mask-type:luminance" maskUnits="userSpaceOnUse" x="50" y="206" width="200" height="130">
<path d="M144.903 206.407C116.224 208.319 56.8669 212.148 52.561 235.115C50.4962 246.123 48.7335 311.191 52.561 319.324C56.3884 327.457 117.152 340.375 175.044 334.156C232.937 327.936 245.257 317.034 246.214 308.422C247.171 299.81 254.798 234.666 245.229 227.968C235.661 221.27 195.141 203.058 144.903 206.407Z" fill="white"/>
</mask>
<g mask="url(#mask0_2063_28809)">
<path d="M48.6333 240.588C48.6333 240.588 74.8453 275.578 161.489 268.476C248.133 261.374 243.41 257.253 257.259 241.786C257.259 241.786 285.949 339.463 198.986 349.652C112.022 359.838 54.4255 370.538 45.7607 324.53C37.0959 278.522 48.6333 240.588 48.6333 240.588Z" fill="#55495B"/>
</g>
<mask id="mask1_2063_28809" style="mask-type:luminance" maskUnits="userSpaceOnUse" x="50" y="206" width="200" height="130">
<path d="M144.903 206.407C116.224 208.319 56.8669 212.148 52.561 235.115C50.4962 246.123 48.7335 311.191 52.561 319.324C56.3884 327.457 117.152 340.375 175.044 334.156C232.937 327.936 245.257 317.034 246.214 308.422C247.171 299.81 254.798 234.666 245.229 227.968C235.661 221.27 195.141 203.058 144.903 206.407Z" fill="white"/>
</mask>
<g mask="url(#mask1_2063_28809)">
<path opacity="0.22" d="M52.2218 227.969C52.2218 227.969 41.7942 250.353 77.075 258.371C77.075 258.371 68.6553 256.453 68.6553 277.457C68.6553 298.461 55.3198 327.764 121.975 330.132C188.631 332.501 236.633 316.807 251.467 298.814C251.467 298.814 265.083 328.752 203.151 339.866C141.219 350.979 64.6474 350.979 46.606 326.524C28.5647 302.069 52.2218 227.969 52.2218 227.969Z" fill="#55495B"/>
</g>
<mask id="mask2_2063_28809" style="mask-type:luminance" maskUnits="userSpaceOnUse" x="50" y="206" width="200" height="130">
<path d="M144.903 206.407C116.224 208.319 56.8669 212.148 52.561 235.115C50.4962 246.123 48.7335 311.191 52.561 319.324C56.3884 327.457 117.152 340.375 175.044 334.156C232.937 327.936 245.257 317.034 246.214 308.422C247.171 299.81 254.798 234.666 245.229 227.968C235.661 221.27 195.141 203.058 144.903 206.407Z" fill="white"/>
</mask>
<g mask="url(#mask2_2063_28809)">
<path opacity="0.22" d="M144.23 304.044C144.23 304.044 149.142 305.144 152.962 304.044C156.782 302.944 151.523 309.55 148.968 308.84C146.415 308.13 144.23 304.044 144.23 304.044Z" fill="#55495B"/>
</g>
<mask id="mask3_2063_28809" style="mask-type:luminance" maskUnits="userSpaceOnUse" x="50" y="206" width="200" height="130">
<path d="M144.903 206.407C116.224 208.319 56.8669 212.148 52.561 235.115C50.4962 246.123 48.7335 311.191 52.561 319.324C56.3884 327.457 117.152 340.375 175.044 334.156C232.937 327.936 245.257 317.034 246.214 308.422C247.171 299.81 254.798 234.666 245.229 227.968C235.661 221.27 195.141 203.058 144.903 206.407Z" fill="white"/>
</mask>
<g mask="url(#mask3_2063_28809)">
<path d="M90.5497 210.707C88.8398 211.26 208.319 200.413 240.061 230.082C252.606 241.808 181.009 259.892 181.009 259.892C181.009 259.892 232.98 255.953 245.5 236.79C258.02 217.627 176.827 182.766 90.5497 210.707Z" fill="#BA9EC6"/>
</g>
<mask id="mask4_2063_28809" style="mask-type:luminance" maskUnits="userSpaceOnUse" x="50" y="206" width="200" height="130">
<path d="M144.903 206.407C116.224 208.319 56.8669 212.148 52.561 235.115C50.4962 246.123 48.7335 311.191 52.561 319.324C56.3884 327.457 117.152 340.375 175.044 334.156C232.937 327.936 245.257 317.034 246.214 308.422C247.171 299.81 254.798 234.666 245.229 227.968C235.661 221.27 195.141 203.058 144.903 206.407Z" fill="white"/>
</mask>
<g mask="url(#mask4_2063_28809)">
<path d="M62.4221 239.963C62.4221 239.963 51.5867 224.547 89.1753 216.007C126.764 207.468 178.686 208.615 204.143 217.26C204.143 217.26 123.632 211.131 105.517 217.796C87.4046 224.461 62.4221 239.963 62.4221 239.963Z" fill="#55495B"/>
</g>
<path d="M144.903 206.407C116.224 208.319 56.8669 212.148 52.561 235.115C50.4962 246.123 48.7335 311.191 52.561 319.324C56.3884 327.457 117.152 340.375 175.044 334.156C232.937 327.936 245.257 317.034 246.214 308.422C247.171 299.81 254.798 234.666 245.229 227.968C235.661 221.27 195.141 203.058 144.903 206.407Z" stroke="#26383C" stroke-miterlimit="10" stroke-linecap="round" stroke-linejoin="round"/>
<path d="M150.174 261.43C199.055 261.43 238.681 250.398 238.681 236.79C238.681 223.182 199.055 212.151 150.174 212.151C101.293 212.151 61.6671 223.182 61.6671 236.79C61.6671 250.398 101.293 261.43 150.174 261.43Z" fill="#EAEAEA"/>
<path d="M150.173 249.947C187.955 249.947 218.584 243.307 218.584 235.115C218.584 226.924 187.955 220.284 150.173 220.284C112.391 220.284 81.7629 226.924 81.7629 235.115C81.7629 243.307 112.391 249.947 150.173 249.947Z" fill="#ED8D5C"/>
<mask id="mask5_2063_28809" style="mask-type:luminance" maskUnits="userSpaceOnUse" x="81" y="220" width="138" height="30">
<path d="M150.173 249.947C187.955 249.947 218.584 243.307 218.584 235.115C218.584 226.924 187.955 220.284 150.173 220.284C112.391 220.284 81.7629 226.924 81.7629 235.115C81.7629 243.307 112.391 249.947 150.173 249.947Z" fill="white"/>
</mask>
<g mask="url(#mask5_2063_28809)">
<path d="M91.0865 220.284C91.0865 220.284 116.393 243.886 116.653 253.798C116.653 253.798 132.307 256.145 133.35 255.102C134.393 254.059 120.734 223.274 105.52 222.492C90.3041 221.709 91.0865 220.284 91.0865 220.284Z" fill="#EDC3A6"/>
</g>
<mask id="mask6_2063_28809" style="mask-type:luminance" maskUnits="userSpaceOnUse" x="81" y="220" width="138" height="30">
<path d="M150.173 249.947C187.955 249.947 218.584 243.307 218.584 235.115C218.584 226.924 187.955 220.284 150.173 220.284C112.391 220.284 81.7629 226.924 81.7629 235.115C81.7629 243.307 112.391 249.947 150.173 249.947Z" fill="white"/>
</mask>
<g mask="url(#mask6_2063_28809)">
<path d="M134.356 217.972C134.356 217.972 163.311 244.133 166.272 254.006L182.562 253.02C182.562 253.02 183.662 220.441 162.379 216.986C141.097 213.529 134.356 217.972 134.356 217.972Z" fill="#EDC3A6"/>
</g>
<mask id="mask7_2063_28809" style="mask-type:luminance" maskUnits="userSpaceOnUse" x="81" y="220" width="138" height="30">
<path d="M150.173 249.947C187.955 249.947 218.584 243.307 218.584 235.115C218.584 226.924 187.955 220.284 150.173 220.284C112.391 220.284 81.7629 226.924 81.7629 235.115C81.7629 243.307 112.391 249.947 150.173 249.947Z" fill="white"/>
</mask>
<g mask="url(#mask7_2063_28809)">
<path d="M196.19 220.284C196.19 220.284 192.998 251.045 191.976 253.019C190.954 254.994 200.404 249.949 200.404 249.949C200.404 249.949 212.492 223.305 208.317 220.284C204.143 217.262 196.19 220.284 196.19 220.284Z" fill="#EDC3A6"/>
</g>
<mask id="mask8_2063_28809" style="mask-type:luminance" maskUnits="userSpaceOnUse" x="81" y="220" width="138" height="30">
<path d="M150.173 249.947C187.955 249.947 218.584 243.307 218.584 235.115C218.584 226.924 187.955 220.284 150.173 220.284C112.391 220.284 81.7629 226.924 81.7629 235.115C81.7629 243.307 112.391 249.947 150.173 249.947Z" fill="white"/>
</mask>
<g mask="url(#mask8_2063_28809)">
<path opacity="0.42" d="M91.8689 224.419C91.8689 224.419 82.3433 229.88 90.6473 236.79C98.9513 243.7 168.321 249.947 168.321 249.947C168.321 249.947 108.22 264.01 89.1747 249.947C70.1294 235.884 84.5414 227.609 91.8689 224.419Z" fill="#D67B54"/>
</g>
<mask id="mask9_2063_28809" style="mask-type:luminance" maskUnits="userSpaceOnUse" x="81" y="220" width="138" height="30">
<path d="M150.173 249.947C187.955 249.947 218.584 243.307 218.584 235.115C218.584 226.924 187.955 220.284 150.173 220.284C112.391 220.284 81.7629 226.924 81.7629 235.115C81.7629 243.307 112.391 249.947 150.173 249.947Z" fill="white"/>
</mask>
<g mask="url(#mask9_2063_28809)">
<path opacity="0.37" d="M109.161 223.243C109.161 223.243 197.25 222.668 200.811 231.545C204.372 240.421 198.474 246.737 198.474 246.737C198.474 246.737 223.27 248.582 221.627 235.115C219.984 221.649 153.142 220.284 153.142 220.284" fill="#FCEDE8"/>
</g>
<path d="M150.173 249.947C187.955 249.947 218.584 243.307 218.584 235.115C218.584 226.924 187.955 220.284 150.173 220.284C112.391 220.284 81.7629 226.924 81.7629 235.115C81.7629 243.307 112.391 249.947 150.173 249.947Z" stroke="#26383C" stroke-width="0.7547" stroke-miterlimit="10" stroke-linecap="round" stroke-linejoin="round"/>
<path opacity="0.22" d="M161.993 290.644C161.993 290.644 158.058 299.361 152.625 296.436C147.191 293.51 152.093 297.079 152.093 297.079C152.093 297.079 158.984 299.212 161.307 295.316C163.631 291.42 161.993 290.644 161.993 290.644Z" fill="#55495B"/>
<path opacity="0.22" d="M136.162 291.726C136.162 291.726 137.652 294.802 140.905 296.04C144.54 297.42 148.185 295.318 148.185 295.318C148.185 295.318 142.277 300.646 139.134 297.663C135.991 294.681 136.162 291.726 136.162 291.726Z" fill="#55495B"/>
<path d="M198.513 298.814C203.929 298.814 208.319 294.424 208.319 289.008C208.319 283.592 203.929 279.202 198.513 279.202C193.098 279.202 188.707 283.592 188.707 289.008C188.707 294.424 193.098 298.814 198.513 298.814Z" fill="black"/>
<path d="M196.19 290.643C198.517 290.643 200.404 288.757 200.404 286.429C200.404 284.102 198.517 282.216 196.19 282.216C193.863 282.216 191.976 284.102 191.976 286.429C191.976 288.757 193.863 290.643 196.19 290.643Z" fill="white"/>
<path d="M200.813 295.318C202.104 295.318 203.151 294.271 203.151 292.981C203.151 291.69 202.104 290.643 200.813 290.643C199.522 290.643 198.476 291.69 198.476 292.981C198.476 294.271 199.522 295.318 200.813 295.318Z" fill="white"/>
<path d="M108.787 289.008C108.787 294.424 104.397 298.814 98.9808 298.814C93.5651 298.814 89.1748 294.424 89.1748 289.008C89.1748 283.592 93.5651 279.202 98.9808 279.202C104.397 279.202 108.787 283.592 108.787 289.008Z" fill="black"/>
<path d="M105.518 286.429C105.518 288.757 103.632 290.643 101.305 290.643C98.9771 290.643 97.0908 288.757 97.0908 286.429C97.0908 284.102 98.9771 282.216 101.305 282.216C103.632 282.216 105.518 284.102 105.518 286.429Z" fill="white"/>
<path d="M96.6826 295.318C97.9735 295.318 99.0199 294.271 99.0199 292.981C99.0199 291.69 97.9735 290.643 96.6826 290.643C95.3918 290.643 94.3453 291.69 94.3453 292.981C94.3453 294.271 95.3918 295.318 96.6826 295.318Z" fill="white"/>
<path d="M162.38 291.726C162.38 295.345 159.444 298.281 155.825 298.281C152.205 298.281 149.27 295.345 149.27 291.726C149.27 295.345 146.335 298.281 142.715 298.281C139.095 298.281 136.16 295.345 136.16 291.726" stroke="#26383C" stroke-width="0.7614" stroke-miterlimit="10" stroke-linecap="round" stroke-linejoin="round"/>
<path d="M149.272 291.726C149.272 295.191 146.576 297.996 143.172 298.234C144.121 300.685 146.486 302.432 149.272 302.432C152.058 302.432 154.423 300.687 155.372 298.234C151.968 297.996 149.272 295.191 149.272 291.726Z" fill="#84215A" stroke="#26383C" stroke-width="0.7952" stroke-miterlimit="10" stroke-linecap="round" stroke-linejoin="round"/>
<path d="M200.403 312.024C208.823 312.024 215.649 309.877 215.649 307.228C215.649 304.579 208.823 302.432 200.403 302.432C191.984 302.432 185.158 304.579 185.158 307.228C185.158 309.877 191.984 312.024 200.403 312.024Z" fill="#F2A4BE"/>
<path d="M99.0182 312.024C107.438 312.024 114.263 309.877 114.263 307.228C114.263 304.579 107.438 302.432 99.0182 302.432C90.5985 302.432 83.7729 304.579 83.7729 307.228C83.7729 309.877 90.5985 312.024 99.0182 312.024Z" fill="#F2A4BE"/>
</g>
<g opacity="0.9">
<path opacity="0.29" d="M761.618 416.005C761.618 426.575 697.767 445.559 619 445.559C540.233 445.559 476.382 426.575 476.382 416.005C476.382 405.435 540.233 396.867 619 396.867C697.767 396.867 761.618 405.435 761.618 416.005Z" fill="#67576D"/>
<path d="M633.196 171.022C609.029 169.439 512.687 254.18 485.908 302.806C459.128 351.431 462.651 412.741 572.589 419.789C682.527 426.837 772.025 413.447 765.682 351.431C759.34 289.413 676.182 173.842 633.196 171.022Z" fill="#EAEAEA"/>
<mask id="mask10_2063_28809" style="mask-type:luminance" maskUnits="userSpaceOnUse" x="472" y="171" width="294" height="251">
<path d="M633.196 171.022C609.029 169.439 512.687 254.18 485.908 302.806C459.128 351.431 462.651 412.741 572.589 419.789C682.527 426.837 772.025 413.447 765.682 351.431C759.34 289.413 676.182 173.842 633.196 171.022Z" fill="white"/>
</mask>
<g mask="url(#mask10_2063_28809)">
<path d="M619 168.3C619 168.3 521.717 246.347 513.958 299.582C506.199 352.817 528.934 417.841 623.104 410.486C717.275 403.132 777.044 365.165 764.954 314.199C764.954 314.199 828.747 468.173 641.703 454.674C454.659 441.176 432.569 388.282 441.16 324.531C449.748 260.778 619 168.3 619 168.3Z" fill="#D6D6D6"/>
</g>
<mask id="mask11_2063_28809" style="mask-type:luminance" maskUnits="userSpaceOnUse" x="472" y="171" width="294" height="251">
<path d="M633.196 171.022C609.029 169.439 512.687 254.18 485.908 302.806C459.128 351.431 462.651 412.741 572.589 419.789C682.527 426.837 772.025 413.447 765.682 351.431C759.34 289.413 676.182 173.842 633.196 171.022Z" fill="white"/>
</mask>
<g mask="url(#mask11_2063_28809)">
<path opacity="0.73" d="M632.028 162.6C632.028 162.6 688.318 223.712 726.267 282.865C764.217 342.017 684.282 400.178 684.282 400.178C684.282 400.178 799.495 378.662 776.178 314.197C752.863 249.732 632.028 162.6 632.028 162.6Z" fill="#FCFCFC"/>
</g>
<mask id="mask12_2063_28809" style="mask-type:luminance" maskUnits="userSpaceOnUse" x="472" y="171" width="294" height="251">
<path d="M633.196 171.022C609.029 169.439 512.687 254.18 485.908 302.806C459.128 351.431 462.651 412.741 572.589 419.789C682.527 426.837 772.025 413.447 765.682 351.431C759.34 289.413 676.182 173.842 633.196 171.022Z" fill="white"/>
</mask>
<g mask="url(#mask12_2063_28809)">
<path opacity="0.14" d="M668.285 371.416C668.285 371.416 570.091 344.843 558.909 369.689C547.731 394.538 554.495 428.107 554.495 428.107L663.085 442.398L668.285 371.416Z" fill="#8C8C8C"/>
</g>
<mask id="mask13_2063_28809" style="mask-type:luminance" maskUnits="userSpaceOnUse" x="472" y="171" width="294" height="251">
<path d="M633.196 171.022C609.029 169.439 512.687 254.18 485.908 302.806C459.128 351.431 462.651 412.741 572.589 419.789C682.527 426.837 772.025 413.447 765.682 351.431C759.34 289.413 676.182 173.842 633.196 171.022Z" fill="white"/>
</mask>
<g mask="url(#mask13_2063_28809)">
<path d="M614.614 336.169C614.614 336.169 622.502 337.491 627.872 336.169C633.242 334.846 626.851 342.757 621.444 344.702C616.037 346.644 614.614 336.169 614.614 336.169Z" fill="#D6D6D6"/>
</g>
<path d="M633.196 171.022C609.029 169.439 512.687 254.18 485.908 302.806C459.128 351.431 462.651 412.741 572.589 419.789C682.527 426.837 772.025 413.447 765.682 351.431C759.34 289.413 676.182 173.842 633.196 171.022Z" stroke="#26383C" stroke-miterlimit="10" stroke-linecap="round" stroke-linejoin="round"/>
<path d="M564.563 331.14C572.485 331.14 578.908 324.718 578.908 316.795C578.908 308.873 572.485 302.45 564.563 302.45C556.64 302.45 550.218 308.873 550.218 316.795C550.218 324.718 556.64 331.14 564.563 331.14Z" fill="black" stroke="#26383C" stroke-width="0.5" stroke-miterlimit="10"/>
<path d="M565.093 326.493C570.947 326.493 575.692 321.748 575.692 315.895C575.692 310.041 570.947 305.296 565.093 305.296C559.24 305.296 554.495 310.041 554.495 315.895C554.495 321.748 559.24 326.493 565.093 326.493Z" fill="white" stroke="#26383C" stroke-width="0.5" stroke-miterlimit="10"/>
<path d="M674.214 331.14C682.137 331.14 688.559 324.718 688.559 316.795C688.559 308.873 682.137 302.45 674.214 302.45C666.292 302.45 659.869 308.873 659.869 316.795C659.869 324.718 666.292 331.14 674.214 331.14Z" fill="black" stroke="#26383C" stroke-width="0.5" stroke-miterlimit="10"/>
<path d="M673.684 326.493C679.538 326.493 684.283 321.748 684.283 315.895C684.283 310.041 679.538 305.296 673.684 305.296C667.83 305.296 663.085 310.041 663.085 315.895C663.085 321.748 667.83 326.493 673.684 326.493Z" fill="white" stroke="#26383C" stroke-width="0.5" stroke-miterlimit="10"/>
<path d="M567.615 377.505C566.428 393.13 556.425 423.604 580.595 430.316C604.764 437.028 664.734 438.37 678.609 423.604C692.483 408.834 692.483 374.821 674.582 372.136C656.677 369.448 568.484 366.086 567.615 377.505Z" fill="#67576D"/>
<mask id="mask14_2063_28809" style="mask-type:luminance" maskUnits="userSpaceOnUse" x="564" y="369" width="125" height="67">
<path d="M567.615 377.505C566.428 393.13 556.425 423.604 580.595 430.316C604.764 437.028 664.734 438.37 678.609 423.604C692.483 408.834 692.483 374.821 674.582 372.136C656.677 369.448 568.484 366.086 567.615 377.505Z" fill="white"/>
</mask>
<g mask="url(#mask14_2063_28809)">
<path opacity="0.22" d="M578.908 366.066C578.908 366.066 570.377 404.641 582.198 415.216C594.019 425.792 668.91 428.004 693.057 402.323C693.057 402.323 702.394 451.921 632.028 453.166C561.666 454.411 560.691 433.256 558.066 399.039C555.441 364.821 578.908 366.066 578.908 366.066Z" fill="#55495B"/>
</g>
<mask id="mask15_2063_28809" style="mask-type:luminance" maskUnits="userSpaceOnUse" x="564" y="369" width="125" height="67">
<path d="M567.615 377.505C566.428 393.13 556.425 423.604 580.595 430.316C604.764 437.028 664.734 438.37 678.609 423.604C692.483 408.834 692.483 374.821 674.582 372.136C656.677 369.448 568.484 366.086 567.615 377.505Z" fill="white"/>
</mask>
<g mask="url(#mask15_2063_28809)">
<path d="M598.996 369.502C603.124 369.798 671.788 368.553 678.632 382.241C685.476 395.929 663.085 417.827 663.085 417.827C663.085 417.827 692.317 418.326 696.052 397.794C699.787 377.261 684.283 340.032 598.996 369.502Z" fill="#BA9EC6"/>
</g>
<path d="M567.615 377.505C566.428 393.13 556.425 423.604 580.595 430.316C604.764 437.028 664.734 438.37 678.609 423.604C692.483 408.834 692.483 374.821 674.582 372.136C656.677 369.448 568.484 366.086 567.615 377.505Z" stroke="#26383C" stroke-miterlimit="10" stroke-linecap="round" stroke-linejoin="round"/>
<path d="M634.665 319.363C633.477 325.166 628.346 329.529 622.193 329.529C616.238 329.529 611.241 325.441 609.847 319.922" stroke="#26383C" stroke-miterlimit="10" stroke-linecap="round" stroke-linejoin="round"/>
<path d="M554.495 350.459C567.36 350.459 577.789 347.178 577.789 343.13C577.789 339.082 567.36 335.801 554.495 335.801C541.63 335.801 531.2 339.082 531.2 343.13C531.2 347.178 541.63 350.459 554.495 350.459Z" fill="#F2A4BE"/>
<path d="M673.684 347.361C686.549 347.361 696.978 344.08 696.978 340.032C696.978 335.985 686.549 332.703 673.684 332.703C660.819 332.703 650.389 335.985 650.389 340.032C650.389 344.08 660.819 347.361 673.684 347.361Z" fill="#F2A4BE"/>
</g>
<g opacity="0.9">
<path opacity="0.29" d="M551.148 571.468C551.148 595.078 439.736 648 312.151 648C184.567 648 77 624.581 77 600.971C77 577.36 187.631 542.781 315.219 542.781C442.808 542.781 551.148 547.857 551.148 571.468Z" fill="#67576D"/>
<path d="M355.623 330.128C264.428 339.488 122.133 371.569 108.586 378.737C95.0384 385.91 110.178 545.289 111.775 568.395C113.368 591.507 136.479 609.037 192.261 620.992C248.042 632.947 307.014 632.947 365.985 627.367C424.956 621.786 492.688 603.461 529.347 589.116C566.005 574.77 562.017 546.881 562.816 526.959C563.614 507.037 566.005 373.161 534.129 363.597C502.252 354.034 433.461 322.14 355.623 330.128Z" fill="#EAEAEA"/>
<mask id="mask16_2063_28809" style="mask-type:luminance" maskUnits="userSpaceOnUse" x="102" y="328" width="462" height="303">
<path d="M355.623 330.128C264.428 339.488 122.133 371.569 108.586 378.737C95.0384 385.91 110.178 545.289 111.775 568.395C113.368 591.507 136.479 609.037 192.261 620.992C248.042 632.947 307.014 632.947 365.985 627.367C424.956 621.786 492.688 603.461 529.347 589.116C566.005 574.77 562.017 546.881 562.816 526.959C563.614 507.037 566.005 373.161 534.129 363.597C502.252 354.034 433.461 322.14 355.623 330.128Z" fill="white"/>
</mask>
<g mask="url(#mask16_2063_28809)">
<path d="M85.7169 380.698C85.7169 380.698 315.687 438.654 434.819 417.786C553.95 396.919 569.65 370.553 569.65 370.553C569.65 370.553 629.411 586.221 539.431 621.903C449.451 657.59 157.745 728.698 103 655.676C48.2556 582.654 85.7169 380.698 85.7169 380.698Z" fill="#D6D6D6"/>
</g>
<mask id="mask17_2063_28809" style="mask-type:luminance" maskUnits="userSpaceOnUse" x="102" y="328" width="462" height="303">
<path d="M355.623 330.128C264.428 339.488 122.133 371.569 108.586 378.737C95.0384 385.91 110.178 545.289 111.775 568.395C113.368 591.507 136.479 609.037 192.261 620.992C248.042 632.947 307.014 632.947 365.985 627.367C424.956 621.786 492.688 603.461 529.347 589.116C566.005 574.77 562.017 546.881 562.816 526.959C563.614 507.037 566.005 373.161 534.129 363.597C502.252 354.034 433.461 322.14 355.623 330.128Z" fill="white"/>
</mask>
<g mask="url(#mask17_2063_28809)">
<path opacity="0.14" d="M536.519 346.939C536.519 346.939 513.564 398.616 399.497 394.823C285.429 391.03 228.246 397.865 223.477 402.716C218.708 407.568 252.307 460.485 205.703 461.47C159.099 462.456 155.975 445.484 149.73 455.53C143.486 465.575 134.117 515.56 146.61 555.351C159.099 595.147 353.114 637.295 539.439 598.267C539.439 598.267 293.348 716.908 163.781 671.636C34.2135 626.364 95.0637 382.959 95.0637 382.959C95.0637 382.959 434.697 382.846 536.519 346.939Z" fill="#8C8C8C"/>
</g>
<mask id="mask18_2063_28809" style="mask-type:luminance" maskUnits="userSpaceOnUse" x="102" y="328" width="462" height="303">
<path d="M355.623 330.128C264.428 339.488 122.133 371.569 108.586 378.737C95.0384 385.91 110.178 545.289 111.775 568.395C113.368 591.507 136.479 609.037 192.261 620.992C248.042 632.947 307.014 632.947 365.985 627.367C424.956 621.786 492.688 603.461 529.347 589.116C566.005 574.77 562.017 546.881 562.816 526.959C563.614 507.037 566.005 373.161 534.129 363.597C502.252 354.034 433.461 322.14 355.623 330.128Z" fill="white"/>
</mask>
<g mask="url(#mask18_2063_28809)">
<path opacity="0.73" d="M343.194 421.544C343.194 421.544 414.853 432.436 471.959 417.786C529.064 403.137 522.117 384.044 536.519 417.786C550.921 451.529 547.832 575.472 524.399 614.969C524.399 614.969 606.794 614.487 589.007 515.837C571.216 417.187 557.17 353.204 557.17 353.204C557.17 353.204 505.445 414.97 343.194 421.544Z" fill="#FCFCFC"/>
</g>
<mask id="mask19_2063_28809" style="mask-type:luminance" maskUnits="userSpaceOnUse" x="102" y="328" width="462" height="303">
<path d="M355.623 330.128C264.428 339.488 122.133 371.569 108.586 378.737C95.0384 385.91 110.178 545.289 111.775 568.395C113.368 591.507 136.479 609.037 192.261 620.992C248.042 632.947 307.014 632.947 365.985 627.367C424.956 621.786 492.688 603.461 529.347 589.116C566.005 574.77 562.017 546.881 562.816 526.959C563.614 507.037 566.005 373.161 534.129 363.597C502.252 354.034 433.461 322.14 355.623 330.128Z" fill="white"/>
</mask>
<g mask="url(#mask19_2063_28809)">
<path opacity="0.14" d="M354.48 542.524C350.892 533.698 374.545 540.376 375.608 539.152C376.672 537.929 362.109 555.355 362.109 555.355C362.109 555.355 357.171 549.142 354.48 542.524Z" fill="#8C8C8C"/>
</g>
<mask id="mask20_2063_28809" style="mask-type:luminance" maskUnits="userSpaceOnUse" x="102" y="328" width="462" height="303">
<path d="M355.623 330.128C264.428 339.488 122.133 371.569 108.586 378.737C95.0384 385.91 110.178 545.289 111.775 568.395C113.368 591.507 136.479 609.037 192.261 620.992C248.042 632.947 307.014 632.947 365.985 627.367C424.956 621.786 492.688 603.461 529.347 589.116C566.005 574.77 562.017 546.881 562.816 526.959C563.614 507.037 566.005 373.161 534.129 363.597C502.252 354.034 433.461 322.14 355.623 330.128Z" fill="white"/>
</mask>
<g mask="url(#mask20_2063_28809)">
<path opacity="0.14" d="M333.097 508.586C333.097 508.586 345.434 524.234 357.975 518.662C357.975 518.662 337.319 529.945 333.097 508.586Z" fill="#8C8C8C"/>
</g>
<mask id="mask21_2063_28809" style="mask-type:luminance" maskUnits="userSpaceOnUse" x="102" y="328" width="462" height="303">
<path d="M355.623 330.128C264.428 339.488 122.133 371.569 108.586 378.737C95.0384 385.91 110.178 545.289 111.775 568.395C113.368 591.507 136.479 609.037 192.261 620.992C248.042 632.947 307.014 632.947 365.985 627.367C424.956 621.786 492.688 603.461 529.347 589.116C566.005 574.77 562.017 546.881 562.816 526.959C563.614 507.037 566.005 373.161 534.129 363.597C502.252 354.034 433.461 322.14 355.623 330.128Z" fill="white"/>
</mask>
<g mask="url(#mask21_2063_28809)">
<path opacity="0.14" d="M363.806 512.713C363.806 512.713 383.359 522.129 390.211 513.616C390.211 513.616 375.001 535.503 363.806 512.713Z" fill="#8C8C8C"/>
</g>
<path d="M355.623 330.128C264.428 339.488 122.133 371.569 108.586 378.737C95.0384 385.91 110.178 545.289 111.775 568.395C113.368 591.507 136.479 609.037 192.261 620.992C248.042 632.947 307.014 632.947 365.985 627.367C424.956 621.786 492.688 603.461 529.347 589.116C566.005 574.77 562.017 546.881 562.816 526.959C563.614 507.037 566.005 373.161 534.129 363.597C502.252 354.034 433.461 322.14 355.623 330.128Z" stroke="#26383C" stroke-miterlimit="10" stroke-linecap="round" stroke-linejoin="round"/>
<path d="M205.586 392.289C225.886 390.037 473.907 397.053 511.876 356.42C549.845 315.787 470.952 269.569 364.166 276.742C257.38 283.915 158.57 345.272 138.648 375.556C118.726 405.836 102.788 439.31 123.508 445.684C144.229 452.059 162.558 405.84 168.932 403.05C175.307 400.26 144.229 460.03 183.278 456.042C222.323 452.054 187.925 394.246 205.586 392.289Z" fill="#ED8D5C"/>
<mask id="mask22_2063_28809" style="mask-type:luminance" maskUnits="userSpaceOnUse" x="113" y="276" width="409" height="181">
<path d="M205.586 392.289C225.886 390.037 473.907 397.053 511.876 356.42C549.845 315.787 470.952 269.569 364.166 276.742C257.38 283.915 158.57 345.272 138.648 375.556C118.726 405.836 102.788 439.31 123.508 445.684C144.229 452.059 162.558 405.84 168.932 403.05C175.307 400.26 144.229 460.03 183.278 456.042C222.323 452.054 187.925 394.246 205.586 392.289Z" fill="white"/>
</mask>
<g mask="url(#mask22_2063_28809)">
<path d="M182.67 328.857C182.67 328.857 260.617 367.915 265.164 349.729C269.712 331.543 193.05 317.9 193.05 317.9L182.67 328.857Z" fill="#EDC3A6"/>
</g>
<mask id="mask23_2063_28809" style="mask-type:luminance" maskUnits="userSpaceOnUse" x="113" y="276" width="409" height="181">
<path d="M205.586 392.289C225.886 390.037 473.907 397.053 511.876 356.42C549.845 315.787 470.952 269.569 364.166 276.742C257.38 283.915 158.57 345.272 138.648 375.556C118.726 405.836 102.788 439.31 123.508 445.684C144.229 452.059 162.558 405.84 168.932 403.05C175.307 400.26 144.229 460.03 183.278 456.042C222.323 452.054 187.925 394.246 205.586 392.289Z" fill="white"/>
</mask>
<g mask="url(#mask23_2063_28809)">
<path d="M243.451 303.693C243.451 303.693 320.339 361.141 331.17 346.626C342.001 332.111 277.367 293.466 277.367 293.466L243.451 303.693Z" fill="#EDC3A6"/>
</g>
<mask id="mask24_2063_28809" style="mask-type:luminance" maskUnits="userSpaceOnUse" x="113" y="276" width="409" height="181">
<path d="M205.586 392.289C225.886 390.037 473.907 397.053 511.876 356.42C549.845 315.787 470.952 269.569 364.166 276.742C257.38 283.915 158.57 345.272 138.648 375.556C118.726 405.836 102.788 439.31 123.508 445.684C144.229 452.059 162.558 405.84 168.932 403.05C175.307 400.26 144.229 460.03 183.278 456.042C222.323 452.054 187.925 394.246 205.586 392.289Z" fill="white"/>
</mask>
<g mask="url(#mask24_2063_28809)">
<path d="M317.675 275.995C317.675 275.995 366.727 336.733 387.751 325.715C408.774 314.698 342.179 268.25 342.179 268.25L317.675 275.995Z" fill="#EDC3A6"/>
</g>
<mask id="mask25_2063_28809" style="mask-type:luminance" maskUnits="userSpaceOnUse" x="113" y="276" width="409" height="181">
<path d="M205.586 392.289C225.886 390.037 473.907 397.053 511.876 356.42C549.845 315.787 470.952 269.569 364.166 276.742C257.38 283.915 158.57 345.272 138.648 375.556C118.726 405.836 102.788 439.31 123.508 445.684C144.229 452.059 162.558 405.84 168.932 403.05C175.307 400.26 144.229 460.03 183.278 456.042C222.323 452.054 187.925 394.246 205.586 392.289Z" fill="white"/>
</mask>
<g mask="url(#mask25_2063_28809)">
<path d="M405.867 275.995C418.928 295.826 421.245 326.574 434.602 325.715C447.958 324.856 444.3 281.771 441.549 281.224C438.802 280.677 405.867 275.995 405.867 275.995Z" fill="#EDC3A6"/>
</g>
<mask id="mask26_2063_28809" style="mask-type:luminance" maskUnits="userSpaceOnUse" x="113" y="276" width="409" height="181">
<path d="M205.586 392.289C225.886 390.037 473.907 397.053 511.876 356.42C549.845 315.787 470.952 269.569 364.166 276.742C257.38 283.915 158.57 345.272 138.648 375.556C118.726 405.836 102.788 439.31 123.508 445.684C144.229 452.059 162.558 405.84 168.932 403.05C175.307 400.26 144.229 460.03 183.278 456.042C222.323 452.054 187.925 394.246 205.586 392.289Z" fill="white"/>
</mask>
<g mask="url(#mask26_2063_28809)">
<path opacity="0.42" d="M523.379 345.177C523.379 345.177 504.616 363.827 387.75 366.114C270.883 368.4 231.335 388.721 193.049 385.818C154.763 382.915 150.411 380.112 148.957 353.209C148.957 353.209 101.06 372.779 89.4482 425.744C77.8362 478.71 174.763 526.62 204.679 480.168C234.594 433.716 511.706 414.844 523.379 345.177Z" fill="#D67B54"/>
</g>
<mask id="mask27_2063_28809" style="mask-type:luminance" maskUnits="userSpaceOnUse" x="113" y="276" width="409" height="181">
<path d="M205.586 392.289C225.886 390.037 473.907 397.053 511.876 356.42C549.845 315.787 470.952 269.569 364.166 276.742C257.38 283.915 158.57 345.272 138.648 375.556C118.726 405.836 102.788 439.31 123.508 445.684C144.229 452.059 162.558 405.84 168.932 403.05C175.307 400.26 144.229 460.03 183.278 456.042C222.323 452.054 187.925 394.246 205.586 392.289Z" fill="white"/>
</mask>
<g mask="url(#mask27_2063_28809)">
<path opacity="0.37" d="M204.679 314.997C204.679 314.997 379.992 267.886 441.553 293.466C503.115 319.05 520.759 353.205 520.759 353.205C520.759 353.205 601.821 328.579 529.246 288.254C456.672 247.929 453.339 227.604 362.114 249.378C270.888 271.153 204.679 314.997 204.679 314.997Z" fill="#FCEDE8"/>
</g>
<path d="M205.586 392.289C225.886 390.037 473.907 397.053 511.876 356.42C549.845 315.787 470.952 269.569 364.166 276.742C257.38 283.915 158.57 345.272 138.648 375.556C118.726 405.836 102.788 439.31 123.508 445.684C144.229 452.059 162.558 405.84 168.932 403.05C175.307 400.26 144.229 460.03 183.278 456.042C222.323 452.054 187.925 394.246 205.586 392.289Z" stroke="#26383C" stroke-miterlimit="10" stroke-linecap="round" stroke-linejoin="round"/>
<path d="M222.454 500.286L251.497 509.858L222.454 516.888" stroke="#26383C" stroke-miterlimit="10" stroke-linecap="round" stroke-linejoin="round"/>
<path d="M483.471 516.888L454.433 507.315L483.471 500.286" stroke="#26383C" stroke-miterlimit="10" stroke-linecap="round" stroke-linejoin="round"/>
<path d="M216.309 537.495L193.05 555.356" stroke="#26383C" stroke-miterlimit="10" stroke-linecap="round" stroke-linejoin="round"/>
<path d="M239.572 542.524L216.309 560.389" stroke="#26383C" stroke-miterlimit="10" stroke-linecap="round" stroke-linejoin="round"/>
<path d="M261.853 546.426L238.59 564.286" stroke="#26383C" stroke-miterlimit="10" stroke-linecap="round" stroke-linejoin="round"/>
<path d="M480.092 525.188L503.355 543.049" stroke="#26383C" stroke-miterlimit="10" stroke-linecap="round" stroke-linejoin="round"/>
<path d="M456.833 530.223L480.092 548.083" stroke="#26383C" stroke-miterlimit="10" stroke-linecap="round" stroke-linejoin="round"/>
<path d="M434.551 534.119L457.814 551.984" stroke="#26383C" stroke-miterlimit="10" stroke-linecap="round" stroke-linejoin="round"/>
<path d="M391.123 508.586C391.123 516.597 384.627 523.093 376.616 523.093C368.606 523.093 362.11 516.597 362.11 508.586C362.11 516.597 355.614 523.093 347.604 523.093C339.593 523.093 333.098 516.597 333.098 508.586" stroke="#26383C" stroke-width="0.7614" stroke-miterlimit="10" stroke-linecap="round" stroke-linejoin="round"/>
<path d="M362.11 508.586C362.11 516.254 356.143 522.464 348.61 522.989C350.71 528.413 355.944 532.279 362.11 532.279C368.276 532.279 373.509 528.417 375.609 522.989C368.076 522.464 362.11 516.25 362.11 508.586Z" fill="#84215A" stroke="#26383C" stroke-width="0.7952" stroke-miterlimit="10" stroke-linecap="round" stroke-linejoin="round"/>
</g>
</g>
<defs>
<clipPath id="clip0_2063_28809">
<rect width="766" height="746" fill="white"/>
</clipPath>
</defs>
</svg>
